<?xml version="1.0" standalone="no"?>
<!DOCTYPE svg PUBLIC "-//W3C//DTD SVG 1.1//EN" "http://www.w3.org/Graphics/SVG/1.1/DTD/svg11.dtd" >
<svg xmlns="http://www.w3.org/2000/svg" xmlns:xlink="http://www.w3.org/1999/xlink" version="1.1">
<metadata></metadata>
<defs>
<font id="theinhardtregular_italic" horiz-adv-x="1216" >
<font-face units-per-em="2048" ascent="1642" descent="-406" />
<missing-glyph horiz-adv-x="409" />
<glyph unicode="&#xfb01;" horiz-adv-x="1097" d="M92 846l29 129h221l45 211q24 110 80 160q67 61 197 61q79 0 153 -18l-33 -144q-54 12 -104 12q-64 0 -94 -30q-31 -31 -47 -111l-31 -141h221l-27 -129h-221l-178 -846h-168l178 846h-221zM674 0l207 975h170l-207 -975h-170zM924 1176l47 217h170l-47 -217h-170z" />
<glyph unicode="&#xfb02;" horiz-adv-x="1122" d="M92 846l29 129h221l45 211q24 110 80 160q67 61 197 61q79 0 153 -18l-33 -144q-54 12 -104 12q-64 0 -94 -30q-31 -31 -47 -111l-31 -141h221l-27 -129h-221l-178 -846h-168l178 846h-221zM686 0l295 1395h170l-297 -1395h-168z" />
<glyph horiz-adv-x="0" />
<glyph horiz-adv-x="682" />
<glyph unicode=" "  horiz-adv-x="409" />
<glyph unicode="&#x09;" horiz-adv-x="409" />
<glyph unicode="&#xa0;" horiz-adv-x="409" />
<glyph unicode="!" horiz-adv-x="466" d="M20 0l54 256h182l-55 -256h-181zM127 354l47 344l148 695h170l-148 -695l-98 -344h-119z" />
<glyph unicode="&#x22;" horiz-adv-x="675" d="M197 819l51 424l31 150h176l-31 -150l-133 -424h-94zM481 819l51 424l31 150h176l-30 -150l-134 -424h-94z" />
<glyph unicode="#" horiz-adv-x="1320" d="M68 432l10 143h313l51 220h-307l10 145h330l105 453h157l-104 -453h207l104 453h158l-105 -453h303l-10 -145h-325l-52 -220h320l-10 -143h-342l-99 -432h-157l98 432h-207l-98 -432h-158l100 432h-292zM549 575h207l51 220h-207z" />
<glyph unicode="$" horiz-adv-x="1157" d="M18 317l148 103q27 -88 91 -155.5t159 -98.5l104 487l-69 27q-43 16 -74.5 31.5t-70.5 43.5t-64 60.5t-42.5 82.5t-17.5 110q0 171 132.5 280t322.5 109q27 0 41 -2l35 166h153l-41 -191q101 -31 176.5 -90.5t120.5 -136.5l-131 -111q-71 133 -198 185l-95 -447l47 -18 q51 -20 89 -38t81 -48t70 -63t45.5 -81.5t18.5 -105.5q0 -184 -129 -302t-361 -118h-24l-37 -176h-154l41 194q-135 33 -229 112.5t-138 190.5zM360 1032q0 -43 15 -76.5t45.5 -58t60 -40.5t74.5 -34l90 422h-8q-117 0 -197 -55t-80 -158zM565 145q141 0 223 66.5t82 181.5 q0 78 -54.5 124t-153.5 83z" />
<glyph unicode="%" horiz-adv-x="1949" d="M137 844q0 140 46.5 266.5t141.5 211.5t218 85q38 0 74.5 -8.5t75.5 -32t68 -59.5t47.5 -96t18.5 -136q0 -103 -27 -203t-76 -182.5t-127 -133t-171 -50.5q-142 0 -215.5 89.5t-73.5 248.5zM279 850q0 -111 42.5 -165t112.5 -54q74 0 133 66.5t88.5 163t30.5 200.5 q0 99 -38.5 159t-112.5 60q-64 0 -115.5 -41t-81 -106.5t-44.5 -138t-15 -144.5zM436 0l932 1393h156l-930 -1393h-158zM1171 313q0 103 28 203t78 181t128.5 130.5t171.5 49.5q38 0 75 -8.5t76 -32t68 -59.5t47.5 -96t18.5 -136q0 -103 -27 -203.5t-76.5 -182.5 t-127.5 -133t-171 -51q-142 0 -215.5 89.5t-73.5 248.5zM1313 319q0 -111 42.5 -165t112.5 -54q74 0 133 66.5t88.5 163t30.5 200.5q0 99 -38.5 159.5t-112.5 60.5q-52 0 -95.5 -27.5t-72.5 -72t-49.5 -101.5t-29.5 -115t-9 -115z" />
<glyph unicode="&#x26;" horiz-adv-x="1280" d="M55 338q0 82 30.5 150t90.5 121.5t128 93.5t163 81q-70 150 -70 285q0 142 91 242t249 100q140 0 217.5 -77t77.5 -189q0 -128 -87 -225.5t-273 -188.5q103 -186 205 -330q69 112 147 295l127 -94q-91 -201 -176 -323q143 -193 221 -279h-213q-61 68 -121 156 q-166 -181 -413 -181q-181 0 -287.5 99t-106.5 264zM229 352q0 -112 66 -168.5t170 -56.5q90 0 171 39t136 102q-160 222 -244 396q-51 -25 -79 -40t-68.5 -40t-63 -46.5t-45.5 -50.5t-33 -62.5t-10 -72.5zM561 1071q0 -102 53 -217q120 60 187 127t67 152q0 64 -38.5 99.5 t-100.5 35.5q-80 0 -124 -54t-44 -143z" />
<glyph unicode="'" horiz-adv-x="391" d="M197 819l51 424l31 150h176l-31 -150l-133 -424h-94z" />
<glyph unicode="(" horiz-adv-x="534" d="M55 279q0 602 453 1118l156 -11q-228 -280 -336.5 -549t-108.5 -567q0 -274 92 -598l-143 -8q-113 322 -113 615z" />
<glyph unicode=")" horiz-adv-x="532" d="M-156 -326q228 283 339.5 554t111.5 569q0 274 -94 592l141 8q115 -331 115 -625q0 -590 -453 -1108z" />
<glyph unicode="*" horiz-adv-x="882" d="M184 1149l72 127l225 -135l56 260l143 -31l-57 -258l262 31l14 -146l-262 -26l108 -240l-133 -59l-106 241l-193 -178l-98 109l197 174z" />
<glyph unicode="+" horiz-adv-x="1351" d="M82 530v156h522v528h158v-528h520v-156h-520v-530h-158v530h-522z" />
<glyph unicode="," horiz-adv-x="430" d="M-68 -297l21 94q58 8 86.5 55t50.5 148h-94l49 236h195l-39 -187q-15 -70 -25.5 -108.5t-34 -90t-55.5 -83.5q-59 -59 -154 -64z" />
<glyph unicode="-" horiz-adv-x="784" d="M102 467l39 178h529l-39 -178h-529z" />
<glyph unicode="." horiz-adv-x="434" d="M-2 0l51 236h195l-51 -236h-195z" />
<glyph unicode="/" horiz-adv-x="757" d="M-45 0l735 1393h166l-733 -1393h-168z" />
<glyph unicode="0" horiz-adv-x="1208" d="M76 510q0 131 27.5 260.5t83.5 246t133 206t184.5 142t230.5 52.5q61 0 119.5 -14t119.5 -50.5t106.5 -93.5t74.5 -150.5t29 -213.5q0 -164 -44 -325.5t-124 -295t-207 -216.5t-279 -83q-223 0 -338.5 142.5t-115.5 392.5zM252 520q1 -106 23.5 -184t63 -123t90.5 -66.5 t112 -21.5q84 0 159.5 44t130.5 119t95.5 171t60.5 202.5t21 212.5q0 179 -73 286.5t-210 107.5q-78 0 -146.5 -33.5t-119 -90.5t-90.5 -131.5t-65 -159t-38 -169t-14 -164.5z" />
<glyph unicode="1" horiz-adv-x="1208" d="M346 954l31 142h45q158 0 250 59q115 71 157 238h158l-297 -1393h-180l203 954h-367z" />
<glyph unicode="2" horiz-adv-x="1208" d="M27 0l22 141q107 61 260.5 161t292.5 204q66 50 106.5 83t95 86.5t85 100t52.5 108.5t22 126q0 116 -72.5 185t-198.5 69q-146 0 -224.5 -89.5t-78.5 -228.5q0 -78 23 -151l-181 34q-18 67 -18 134q0 92 34 174.5t95 144.5t153.5 98.5t202.5 36.5q203 0 324 -111.5 t121 -283.5q0 -68 -16.5 -132.5t-42 -117t-69 -107t-83 -95t-99.5 -88.5t-103.5 -79.5t-108.5 -76.5q-192 -129 -277 -174v-2q82 4 229 4h441l-35 -154h-952z" />
<glyph unicode="3" horiz-adv-x="1208" d="M66 397l167 68q12 -151 89.5 -243.5t234.5 -92.5q81 0 143.5 23.5t99 64t54.5 90t18 105.5q0 78 -39 137t-110 88q-46 19 -94 24t-133 5h-134l29 143h146q181 0 276 49q119 61 119 201q0 95 -66.5 151t-185.5 56t-199.5 -70.5t-95.5 -194.5l-164 60q5 69 39.5 132.5 t93 113.5t145 80t187.5 30q107 0 190 -28.5t133 -77.5t75.5 -109t25.5 -127q0 -127 -68.5 -216t-191.5 -128q97 -49 148 -133.5t51 -187.5q0 -84 -29.5 -160t-87.5 -138.5t-155.5 -99.5t-223.5 -37q-99 0 -179.5 24.5t-134 64.5t-91.5 95.5t-57 114t-25 123.5z" />
<glyph unicode="4" horiz-adv-x="1208" d="M29 362l26 127l830 904h168l-187 -881h248l-33 -150h-247l-78 -362h-174l75 362h-628zM281 512h409l82 377q40 185 55 246h-2q-7 -16 -61.5 -86.5t-110.5 -130.5z" />
<glyph unicode="5" horiz-adv-x="1208" d="M86 334l166 72q16 -121 93.5 -198t201.5 -77q149 0 246.5 102t97.5 289q0 139 -74.5 210t-189.5 71q-108 0 -190 -55.5t-120 -167.5l-159 47l204 766h781l-41 -166h-615l-71 -244l-41 -131h2q109 106 287 106q80 0 152.5 -27t131 -78t93 -134.5t34.5 -188.5 q0 -132 -42.5 -239t-115.5 -175t-168 -104.5t-202 -36.5q-178 0 -298.5 91.5t-162.5 267.5z" />
<glyph unicode="6" horiz-adv-x="1208" d="M117 504q0 179 45.5 344t126 291.5t202.5 202t265 75.5q81 0 149 -22.5t112.5 -58t78 -82.5t50.5 -90.5t25 -88.5l-163 -69q-10 51 -28.5 94.5t-48 81.5t-76 60t-105.5 22q-80 0 -150.5 -38t-122 -102.5t-87.5 -141t-56 -161.5q50 48 134 83.5t185 35.5q186 0 310 -113 t124 -315q0 -81 -20.5 -158t-63 -146t-102.5 -120.5t-144 -82t-182 -30.5q-213 0 -335.5 138.5t-122.5 390.5zM291 512q0 -72 16 -137.5t48.5 -122t90.5 -90t134 -33.5q148 0 238.5 107t90.5 264q0 141 -82 212.5t-204 71.5q-95 0 -187.5 -48t-138.5 -128q-6 -46 -6 -96z " />
<glyph unicode="7" horiz-adv-x="1208" d="M219 971l90 422h967l-33 -133q-244 -270 -438 -590q-100 -167 -171 -323.5t-126 -346.5h-191q100 324 273 627q162 281 438 610h-575l-58 -266h-176z" />
<glyph unicode="8" horiz-adv-x="1208" d="M59 365q0 140 81.5 247.5t234.5 153.5q-148 85 -148 276q0 74 32.5 141.5t91 119.5t148.5 83t197 31q202 0 326.5 -93.5t124.5 -246.5q0 -128 -67.5 -219t-192.5 -129q186 -100 186 -326q0 -188 -140 -308t-390 -120q-231 0 -357.5 107t-126.5 283zM236 385 q0 -111 86.5 -182.5t228.5 -71.5q159 0 251.5 76.5t92.5 206.5q0 117 -84.5 186.5t-230.5 69.5q-165 0 -254.5 -83.5t-89.5 -201.5zM403 1032q0 -92 66.5 -152.5t196.5 -60.5q144 0 221.5 66.5t77.5 173.5q0 90 -73.5 148.5t-195.5 58.5q-141 -1 -217 -68.5t-76 -165.5z" />
<glyph unicode="9" horiz-adv-x="1208" d="M86 317l164 70q10 -51 28.5 -94t48 -81t76 -59.5t105.5 -21.5q80 0 150.5 38t122 102t87.5 141t56 161q-50 -48 -134.5 -83t-185.5 -35q-186 0 -310 112t-124 314q0 81 20.5 158t63 145.5t102.5 120.5t144 82t182 30q213 0 336 -138t123 -390q0 -143 -28.5 -278t-84 -250 t-131.5 -201.5t-178 -135.5t-217 -49q-81 0 -149 22.5t-112.5 58t-78 82.5t-51 90.5t-25.5 88.5zM348 899q0 -142 80.5 -214.5t206.5 -72.5q96 0 188 47.5t138 126.5q6 46 6 97q0 72 -16 137.5t-48.5 122t-90.5 90t-134 33.5q-146 0 -238 -105.5t-92 -261.5z" />
<glyph unicode=":" horiz-adv-x="471" d="M16 0l52 236h194l-51 -236h-195zM170 741l51 236h195l-51 -236h-195z" />
<glyph unicode=";" horiz-adv-x="466" d="M-49 -297l20 94q58 8 87 55.5t51 147.5h-95l49 236h195l-39 -187q-15 -70 -25.5 -108.5t-34 -90t-55.5 -83.5q-59 -59 -153 -64zM168 741l51 236h195l-52 -236h-194z" />
<glyph unicode="&#x3c;" horiz-adv-x="1671" d="M100 606v164l1389 649v-178l-1172 -551l1172 -553v-184z" />
<glyph unicode="=" horiz-adv-x="1742" d="M180 338v156h1376v-156h-1376zM180 694v156h1376v-156h-1376z" />
<glyph unicode="&#x3e;" horiz-adv-x="1669" d="M227 -47v184l1172 553l-1172 551v178l1389 -649v-164z" />
<glyph unicode="?" horiz-adv-x="980" d="M164 1004q0 175 125 294t332 119q189 0 290 -99.5t101 -244.5q0 -217 -203 -371l-164 -124q-48 -37 -72.5 -66.5t-43 -76.5t-31.5 -126h-183q17 104 42 167t68 112t124 110l143 107q142 107 142 256q0 88 -59.5 148.5t-172.5 60.5q-127 0 -197.5 -84t-70.5 -207 q0 -76 28 -152l-178 37q-20 64 -20 140zM248 0l49 227h188l-49 -227h-188z" />
<glyph unicode="@" horiz-adv-x="1640" d="M53 330q0 109 26.5 219.5t76 213t125.5 191.5t168.5 155t211.5 104t250 38q132 0 239.5 -33.5t179.5 -90t121 -133.5t71 -162.5t22 -178.5q0 -159 -58.5 -304t-168 -239t-242.5 -94q-66 0 -103 30.5t-42 86.5h-4q-27 -45 -90 -77.5t-158 -32.5q-116 0 -190 60.5 t-74 174.5q0 109 55 170q71 85 293 123l188 31q20 2 30 5t19.5 11.5t14.5 24.5q12 34 12 67q0 109 -166 109q-111 0 -160.5 -42.5t-64.5 -125.5l-135 18q12 130 111 201.5t261 71.5q143 0 219 -48.5t76 -160.5q0 -33 -16 -121l-68 -318q-16 -83 -16 -90q0 -39 41 -39 q78 0 147 73t109.5 188.5t40.5 238.5q0 95 -27.5 177.5t-84.5 151t-157 108.5t-233 40q-128 0 -242 -45.5t-197 -123t-144 -177t-91 -210.5t-30 -222q0 -90 20.5 -171.5t65 -153t109 -124t158 -82.5t206.5 -30q163 0 327.5 71.5t284.5 206.5l33 -137 q-118 -129 -293.5 -200.5t-361.5 -71.5q-174 0 -310.5 55.5t-218.5 151t-124 215t-42 256.5zM565 270q0 -64 41 -98.5t113 -34.5q83 0 145.5 43.5t81.5 126.5l37 172q-22 -10 -92 -24l-96 -19q-46 -8 -73 -14.5t-61 -19.5t-52 -29t-31 -42t-13 -61z" />
<glyph unicode="A" d="M-102 0l794 1393h193l198 -1393h-180l-53 403h-535l-225 -403h-192zM403 561h428l-65 492l-16 143h-2q-43 -88 -80 -154z" />
<glyph unicode="B" horiz-adv-x="1359" d="M41 0l297 1393h528q111 0 178 -13t121 -41q73 -38 108.5 -108.5t35.5 -157.5q0 -121 -56.5 -214t-173.5 -138q79 -41 118.5 -116.5t39.5 -164.5q0 -76 -27.5 -151.5t-79 -137.5t-118.5 -94q-121 -57 -342 -57h-629zM258 162h424q191 0 264 53q115 75 115 234 q0 69 -32.5 113t-86.5 63q-59 20 -184 20h-398zM395 797h387q181 0 248 49q46 31 74.5 87.5t28.5 131.5q0 117 -107 152q-49 16 -168 16h-369z" />
<glyph unicode="C" horiz-adv-x="1308" d="M111 563q0 127 27.5 249t85 232t139 193t197 131.5t251.5 48.5q111 0 201 -31.5t149 -85.5t95.5 -113t58.5 -128l-160 -86q-14 56 -40.5 105t-68 92t-104.5 67.5t-141 24.5q-85 0 -159 -28.5t-127.5 -79.5t-95 -117.5t-67 -145.5t-38.5 -161.5t-13 -166.5 q0 -198 100.5 -315t272.5 -117q238 0 407 258l140 -92q-209 -322 -566 -322q-248 0 -396 163t-148 425z" />
<glyph unicode="D" horiz-adv-x="1392" d="M41 0l297 1393h324q176 0 290 -25.5t201 -85.5q186 -129 186 -408q0 -152 -40 -299t-127 -276t-207 -199q-111 -63 -211.5 -81.5t-268.5 -18.5h-444zM252 162h242q134 0 224.5 17t162.5 67q89 61 153 173.5t90.5 224t26.5 212.5q0 212 -137 299q-48 33 -119 49.5 t-125.5 19.5t-146.5 3h-142z" />
<glyph unicode="E" d="M43 0l295 1393h936l-33 -164h-756l-90 -428h684l-37 -162h-684l-98 -473h797l-37 -166h-977z" />
<glyph unicode="F" horiz-adv-x="1142" d="M43 0l295 1393h922l-33 -164h-742l-90 -430h670l-37 -162h-670l-135 -637h-180z" />
<glyph unicode="G" horiz-adv-x="1380" d="M113 571q0 127 28 248.5t86 230t140 190t197 129.5t249 48q111 0 201 -31.5t149 -85.5t95.5 -113t58.5 -128l-160 -86q-14 56 -40.5 105t-68 92t-104.5 67.5t-141 24.5q-100 0 -184 -40.5t-141 -108.5t-97.5 -157.5t-59 -187.5t-18.5 -199q0 -210 102.5 -324t260.5 -114 q96 0 173.5 34t131 96t88.5 138.5t55 171.5h-479l35 162h645l-156 -733h-172l31 131h-2q-58 -69 -153 -112.5t-226 -43.5q-230 0 -377 164.5t-147 431.5z" />
<glyph unicode="H" horiz-adv-x="1423" d="M41 0l297 1393h180l-125 -590h733l125 590h181l-297 -1393h-181l138 639h-734l-137 -639h-180z" />
<glyph unicode="I" horiz-adv-x="509" d="M41 0l297 1393h180l-297 -1393h-180z" />
<glyph unicode="J" horiz-adv-x="718" d="M-88 -10l31 157q86 -14 137 -14q111 0 164 45q34 29 57.5 84t46.5 160l207 971h180l-225 -1069q-24 -109 -51.5 -166.5t-69.5 -94.5q-98 -88 -317 -88q-87 0 -160 15z" />
<glyph unicode="K" horiz-adv-x="1308" d="M41 0l297 1393h180l-153 -709l831 709h258l-682 -564l418 -829h-205l-350 719l-320 -262l-94 -457h-180z" />
<glyph unicode="L" horiz-adv-x="1054" d="M41 0l297 1393h180l-260 -1225h688l-37 -168h-868z" />
<glyph unicode="M" horiz-adv-x="1626" d="M41 0l297 1393h258l121 -918q19 -148 24 -233q26 62 113 225l504 926h276l-297 -1393h-180l184 868l72 303h-2q-76 -155 -121 -239l-504 -932h-184l-119 924l-22 227h-2q-26 -162 -53 -291l-185 -860h-180z" />
<glyph unicode="N" horiz-adv-x="1429" d="M41 0l297 1393h170l442 -930q52 -104 76 -168h2q18 109 41 213l188 885h181l-297 -1393h-166l-443 930q-21 41 -47.5 101t-29.5 73h-2q-17 -90 -35 -178l-197 -926h-180z" />
<glyph unicode="O" horiz-adv-x="1454" d="M109 557q0 130 28.5 253.5t89 234t145.5 193t205.5 131t262.5 48.5q256 0 406.5 -159t150.5 -422q0 -128 -29.5 -251.5t-91.5 -234t-148 -194t-208.5 -132.5t-264.5 -49q-255 0 -400.5 159.5t-145.5 422.5zM297 563q0 -199 100 -315.5t279 -116.5q103 0 191 41t149 110 t105 159t64.5 188.5t20.5 197.5q0 200 -102 317.5t-283 117.5q-90 0 -167.5 -28.5t-133.5 -79.5t-99.5 -117.5t-70 -145.5t-40 -161.5t-13.5 -166.5z" />
<glyph unicode="P" horiz-adv-x="1257" d="M41 0l297 1393h493q201 0 312 -60q69 -38 113 -110.5t44 -171.5q0 -127 -59 -233.5t-164 -162.5q-56 -31 -132.5 -46t-209.5 -15h-387l-125 -594h-182zM383 754h367q177 0 262 53q50 34 82 96.5t32 140.5q0 107 -90 156q-37 19 -83 26t-128 7h-342z" />
<glyph unicode="Q" horiz-adv-x="1480" d="M109 557q0 130 28.5 253.5t89 234t145.5 193t205.5 131t262.5 48.5q256 0 406.5 -159t150.5 -422q0 -164 -49.5 -319.5t-143.5 -276.5l137 -189l-147 -112l-123 172q-180 -136 -416 -136q-255 0 -400.5 159.5t-145.5 422.5zM297 563q0 -199 100 -315.5t279 -116.5 q103 0 191 41t149 110t105 159t64.5 188.5t20.5 197.5q0 200 -102 317.5t-283 117.5q-90 0 -167.5 -28.5t-133.5 -79.5t-99.5 -117.5t-70 -145.5t-40 -161.5t-13.5 -166.5z" />
<glyph unicode="R" horiz-adv-x="1323" d="M41 0l297 1393h493q201 0 312 -60q69 -38 113 -110.5t44 -171.5q0 -121 -61 -230t-162 -166q-68 -39 -174 -53l244 -602h-197l-231 594h-371l-127 -594h-180zM383 754h367q177 0 262 53q50 34 82 96.5t32 140.5q0 119 -112 166q-59 23 -189 23h-340z" />
<glyph unicode="S" horiz-adv-x="1173" d="M14 307l152 107q40 -124 144.5 -203.5t264.5 -79.5q147 0 229.5 67.5t82.5 186.5q0 37 -14 68t-34.5 53t-54.5 42.5t-64 33t-73 28.5l-188 70q-43 16 -75.5 31.5t-72.5 44t-65.5 62t-43.5 85t-18 113.5q0 118 63.5 210.5t169.5 141.5t234 49q175 0 304.5 -73.5 t195.5 -188.5l-135 -115q-53 98 -143.5 159t-221.5 61q-121 0 -201.5 -55.5t-80.5 -162.5q0 -46 16.5 -82t51 -61.5t66.5 -42t83 -35.5l178 -67q52 -19 92 -38t83 -49t70.5 -64.5t45.5 -84t18 -108.5q0 -91 -33 -170t-94.5 -138t-158 -93t-216.5 -34q-208 0 -352 90.5 t-205 241.5z" />
<glyph unicode="T" horiz-adv-x="1099" d="M170 1229l37 164h1034l-37 -164h-418l-260 -1229h-180l260 1229h-436z" />
<glyph unicode="U" horiz-adv-x="1372" d="M121 375q0 78 26 198l175 820h180l-168 -787q-33 -157 -33 -207q0 -266 311 -266q184 0 279 90q49 46 81.5 115.5t59.5 193.5l182 861h177l-181 -861q-37 -169 -83.5 -272t-120.5 -164q-69 -57 -176.5 -90t-235.5 -33q-230 0 -351.5 109.5t-121.5 292.5z" />
<glyph unicode="V" horiz-adv-x="1212" d="M186 1393h185l121 -967q5 -40 10 -86t8 -74t6 -47h2q23 54 107 203l544 971h197l-799 -1393h-190z" />
<glyph unicode="W" horiz-adv-x="1841" d="M201 1393h188l55 -760q21 -267 21 -342h2q0 1 59.5 142.5t100.5 221.5l368 738h172l58 -742q24 -334 24 -360h2q8 17 37.5 84t60.5 135t60 127l371 756h194l-692 -1393h-190l-58 768q-5 67 -9 144t-5 121l-2 44h-2q-105 -225 -148 -311l-381 -766h-176z" />
<glyph unicode="X" horiz-adv-x="1267" d="M-135 0l696 750l-317 643h200l254 -521l476 521h233l-631 -670l371 -723h-209l-297 600l-547 -600h-229z" />
<glyph unicode="Y" horiz-adv-x="1202" d="M170 1393h184l262 -658l549 658h213l-700 -824l-121 -569h-180l121 569z" />
<glyph unicode="Z" horiz-adv-x="1183" d="M-70 0l29 131l1038 1096h-764l35 166h1010l-31 -140l-1022 -1087h805l-37 -166h-1063z" />
<glyph unicode="[" horiz-adv-x="591" d="M-45 -326l364 1719h388l-29 -133h-223l-310 -1453h224l-29 -133h-385z" />
<glyph unicode="\" horiz-adv-x="1267" d="M209 1393h166l735 -1393h-168z" />
<glyph unicode="]" horiz-adv-x="587" d="M-135 -324l29 134h221l309 1450h-223l28 133h387l-366 -1717h-385z" />
<glyph unicode="^" horiz-adv-x="940" d="M53 662l520 731h156l201 -731h-180l-136 528l-354 -528h-207z" />
<glyph unicode="_" horiz-adv-x="1497" d="M18 -324l33 156h1077l-34 -156h-1076z" />
<glyph unicode="`" horiz-adv-x="874" d="M352 1393h242l184 -263h-155z" />
<glyph unicode="a" horiz-adv-x="1003" d="M25 244q0 122 61 192q47 55 128.5 87t205.5 52l213 35q24 4 35 7t22 12.5t17 27.5q14 44 14 78q0 123 -189 123q-126 0 -182.5 -48t-75.5 -142l-153 20q15 147 127.5 228t296.5 81q163 0 249.5 -55.5t86.5 -181.5q0 -49 -19 -137l-74 -338q-22 -107 -22 -127 q0 -28 16 -41t56 -13l47 5l-23 -119q-35 -10 -100 -10q-154 0 -154 110v12h-2q-31 -52 -101.5 -89.5t-180.5 -37.5q-132 0 -215.5 69.5t-83.5 199.5zM197 258q0 -73 46.5 -112.5t127.5 -39.5q96 0 166.5 49.5t91.5 143.5l43 195q-37 -15 -105 -27l-110 -21q-44 -8 -69 -14 t-60 -16.5t-54.5 -23t-39.5 -31.5t-28.5 -44.5t-8.5 -58.5z" />
<glyph unicode="b" horiz-adv-x="1089" d="M10 0l297 1393h170l-121 -551q44 70 122 112.5t171 42.5q70 0 131.5 -25t110.5 -73t77.5 -125t28.5 -174q0 -122 -35.5 -234t-98.5 -198.5t-157.5 -138.5t-205.5 -52t-184 48.5t-103 124.5l-33 -150h-170zM268 387q0 -125 56 -196.5t168 -71.5q77 0 142.5 43t106.5 111 t63.5 147.5t22.5 157.5q0 128 -56.5 202t-170.5 74q-80 0 -145.5 -44.5t-105 -115t-60.5 -150.5t-21 -157z" />
<glyph unicode="c" horiz-adv-x="974" d="M57 383q0 119 34 229t96.5 196t159.5 137.5t214 51.5q145 0 238 -72t127 -192l-142 -78q-22 91 -80 147t-155 56q-76 0 -140 -41.5t-104 -107t-62 -142.5t-22 -153q0 -144 64 -220.5t176 -76.5q177 0 278 180l119 -84q-24 -42 -55.5 -78t-81.5 -75t-122 -62t-157 -23 q-180 0 -282.5 107t-102.5 301z" />
<glyph unicode="d" horiz-adv-x="1089" d="M53 373q0 122 35.5 234.5t98.5 199t158 138.5t206 52t184 -48.5t103 -123.5l120 568h170l-294 -1393h-170l30 131q-32 -57 -113 -106.5t-184 -49.5q-143 0 -243.5 104.5t-100.5 293.5zM223 395q0 -128 57 -202t171 -74q80 0 145.5 45t104.5 115.5t60 150.5t21 158 q0 125 -55.5 196.5t-167.5 71.5q-102 0 -181 -74t-117 -177.5t-38 -209.5z" />
<glyph unicode="e" horiz-adv-x="1048" d="M57 397q0 88 21 173.5t64 162.5t104 136t147.5 93.5t186.5 34.5q98 0 173 -35.5t118.5 -96.5t65 -134.5t21.5 -157.5q0 -59 -12 -120h-723q-2 -18 -2 -58q0 -135 73.5 -204.5t184.5 -69.5q107 0 187.5 52.5t128.5 131.5l118 -84q-160 -246 -452 -246q-188 0 -296 110 t-108 312zM250 584h538q0 276 -229 276q-115 0 -196 -76t-113 -200z" />
<glyph unicode="f" horiz-adv-x="679" d="M92 846l29 129h221l45 211q24 110 80 160q67 61 197 61q79 0 153 -18l-33 -144q-54 12 -104 12q-64 0 -94 -30q-31 -31 -47 -111l-31 -141h221l-27 -129h-221l-178 -846h-168l178 846h-221z" />
<glyph unicode="g" horiz-adv-x="1095" d="M-12 -94q0 35 2 53l157 18q-2 -12 -2 -36q0 -103 59.5 -155t166.5 -52q78 0 131.5 21.5t89.5 71.5t57.5 113.5t42.5 165.5q7 37 8 39h-2q-32 -57 -106.5 -102t-181.5 -45q-147 0 -248 108.5t-101 301.5q0 161 61.5 295.5t175.5 214t257 79.5q111 0 184 -48.5t103 -123.5 l32 150h170l-192 -903q-49 -221 -115 -318q-57 -84 -144.5 -122t-223.5 -38q-171 0 -276 77.5t-105 234.5zM231 426q0 -130 56 -207.5t172 -77.5q80 0 144.5 41.5t103 108t59 143.5t20.5 154q0 125 -55.5 196.5t-167.5 71.5q-75 0 -139 -38.5t-105 -100.5t-64.5 -138 t-23.5 -153z" />
<glyph unicode="h" horiz-adv-x="1036" d="M10 0l297 1393h172l-125 -564q48 75 133 121.5t181 46.5q54 0 100 -13.5t83.5 -41.5t59 -77t21.5 -115q0 -62 -25 -187l-119 -563h-167l114 532q27 128 27 173q0 149 -156 149q-60 0 -114.5 -28.5t-93 -75t-65 -100t-38.5 -109.5l-115 -541h-170z" />
<glyph unicode="i" horiz-adv-x="440" d="M12 0l207 975h170l-207 -975h-170zM262 1176l47 217h170l-47 -217h-170z" />
<glyph unicode="j" horiz-adv-x="438" d="M-301 -381l37 133q65 -22 125 -22q50 0 78 28q29 32 45 111l235 1106h170l-211 -993q-35 -167 -56 -229.5t-61 -104.5q-62 -62 -176 -62q-112 0 -186 33zM262 1176l47 217h170l-47 -217h-170z" />
<glyph unicode="k" horiz-adv-x="1003" d="M12 0l295 1393h170l-182 -846l524 428h238l-498 -393l309 -582h-196l-244 477l-174 -141l-74 -336h-168z" />
<glyph unicode="l" horiz-adv-x="458" d="M23 0l294 1393h170l-297 -1393h-167z" />
<glyph unicode="m" horiz-adv-x="1593" d="M12 0l207 975h172l-33 -139q43 74 118 117.5t163 43.5q91 0 160.5 -46t93.5 -134q44 78 130 129t196 51q113 0 190.5 -68t77.5 -196q0 -67 -23 -182l-116 -551h-170l112 526q2 10 8 39t9.5 46t6.5 42t3 45q0 150 -156 150q-105 0 -177.5 -79.5t-96.5 -190.5l-121 -578 h-168l113 526q26 133 26 172q0 150 -155 150q-59 0 -109 -27.5t-84 -73t-57 -97.5t-35 -109l-115 -541h-170z" />
<glyph unicode="n" horiz-adv-x="1038" d="M12 0l207 975h172l-35 -146q48 75 133 121.5t181 46.5q54 0 100 -13.5t83.5 -41.5t59 -77t21.5 -115q0 -62 -25 -187l-118 -563h-168l114 532q27 128 27 173q0 149 -156 149q-60 0 -114.5 -28.5t-93 -75t-65 -100t-38.5 -109.5l-115 -541h-170z" />
<glyph unicode="o" horiz-adv-x="1064" d="M55 387q0 92 21 180.5t65 166t105.5 136.5t148 93t187.5 34q184 0 285.5 -115.5t101.5 -306.5q0 -88 -20.5 -173.5t-63.5 -162.5t-103.5 -136t-147 -93.5t-188.5 -34.5q-179 0 -285 111.5t-106 300.5zM221 399q0 -133 66 -207.5t178 -74.5q83 0 149.5 42t106.5 110 t61 147.5t21 161.5q0 133 -64 206.5t-178 73.5q-81 0 -148 -42t-107.5 -109.5t-62.5 -147t-22 -160.5z" />
<glyph unicode="p" horiz-adv-x="1087" d="M-74 -389l289 1362h170l-31 -131q44 70 122 112.5t171 42.5q70 0 131.5 -25t110.5 -73t77.5 -125t28.5 -174q0 -122 -35.5 -234t-98.5 -198.5t-157.5 -138.5t-205.5 -52t-184 48.5t-103 124.5l-115 -539h-170zM266 387q0 -125 55.5 -196.5t167.5 -71.5q102 0 181 73.5 t117 176.5t38 209q0 128 -56.5 202t-170.5 74q-80 0 -145.5 -44.5t-105 -115t-60.5 -150.5t-21 -157z" />
<glyph unicode="q" horiz-adv-x="1091" d="M53 373q0 122 35.5 234t98.5 198.5t158 138t206 51.5t184 -48.5t103 -123.5l32 152h170l-288 -1364h-170l112 520q-44 -70 -122 -113t-171 -43q-69 0 -131 25.5t-111 73.5t-77.5 125t-28.5 174zM223 395q0 -128 57 -202t171 -74q64 0 119.5 29.5t93.5 77.5t65.5 109.5 t40 125.5t12.5 125q0 125 -55.5 196.5t-167.5 71.5q-102 0 -181 -73.5t-117 -176.5t-38 -209z" />
<glyph unicode="r" horiz-adv-x="696" d="M12 0l207 975h170l-41 -187q39 89 137 149t197 60q32 0 59 -6l-34 -162q-35 7 -62 7q-131 0 -229.5 -100t-126.5 -232l-107 -504h-170z" />
<glyph unicode="s" horiz-adv-x="905" d="M-6 217l129 84q32 -79 102.5 -132.5t177.5 -53.5q99 0 154 40t55 111q0 60 -36.5 89t-114.5 55l-131 43q-42 14 -75 30.5t-68.5 45.5t-55.5 74.5t-20 103.5q0 136 103 213t251 77q125 0 222 -58t142 -155l-120 -86q-39 75 -103 118.5t-151 43.5q-80 0 -129.5 -36 t-49.5 -99q0 -56 35.5 -85.5t106.5 -53.5l131 -41q51 -17 87 -35t71 -47t53 -72t18 -100q0 -101 -53.5 -174.5t-137 -107.5t-184.5 -34q-153 0 -257 67.5t-152 174.5z" />
<glyph unicode="t" horiz-adv-x="641" d="M78 846l26 129h189l78 356l176 33l-84 -389h213l-27 -129h-213l-131 -610q-8 -40 -8 -58q0 -33 20 -47t70 -14q57 0 111 12l-29 -137q-74 -17 -152 -17q-104 0 -151 30t-47 104q0 27 10 79l139 658h-190z" />
<glyph unicode="u" horiz-adv-x="1026" d="M68 246q0 68 22 178l117 551h168l-113 -526q-26 -123 -26 -173q0 -69 33.5 -109t117.5 -40q59 0 111.5 27.5t90 72.5t63.5 98t38 109l115 541h170l-207 -975h-172l35 145q-50 -78 -126.5 -123t-174.5 -45q-112 0 -187 69t-75 200z" />
<glyph unicode="v" horiz-adv-x="921" d="M106 975h177l73 -555l25 -209h2q5 8 21.5 40.5t41.5 80.5t46 86l303 557h188l-561 -975h-168z" />
<glyph unicode="w" horiz-adv-x="1503" d="M111 975h180l61 -535q22 -168 25 -207h2q40 94 104 216l287 526h154l45 -529q5 -50 10 -125.5t6 -89.5h2q30 68 113 222l280 522h183l-545 -975h-158l-53 551q-10 105 -10 192h-2q-77 -160 -95 -194l-292 -549h-170z" />
<glyph unicode="x" horiz-adv-x="917" d="M-111 0l469 520l-211 455h189l141 -332l289 332h201l-426 -471l227 -504h-186l-162 377l-328 -377h-203z" />
<glyph unicode="y" horiz-adv-x="917" d="M-147 -387l30 139q49 -22 109 -22q66 0 110 41q30 30 76 110l72 127l-139 967h178l71 -576l17 -174h2q49 101 98 187l320 563h184l-676 -1163q-65 -113 -104 -152q-71 -74 -217 -74q-82 0 -131 27z" />
<glyph unicode="z" horiz-adv-x="915" d="M-57 0l28 135l695 699h-523l31 141h748l-29 -131l-709 -703h568l-31 -141h-778z" />
<glyph unicode="{" horiz-adv-x="591" d="M47 -180q0 23 5 52t16 76.5t16 71.5l43 201q27 132 27 174q0 49 -22.5 79t-78.5 48l29 127q35 5 59 12t43 22t30.5 30.5t23 48.5t18.5 64t18 87l50 238q15 78 35 125.5t51.5 74t68.5 35.5t96 9q61 0 123 -4l-26 -125h-51q-74 0 -101 -38.5t-53 -164.5l-45 -221 q-12 -56 -20 -87t-23.5 -66t-36 -54t-52.5 -34.5t-77 -22.5q57 -29 80.5 -67t23.5 -101q0 -50 -12 -111l-63 -301q-19 -89 -19 -113q0 -46 26 -65t99 -19h21l-27 -125q-9 0 -41.5 -1t-40.5 -1q-113 0 -163 34.5t-50 111.5z" />
<glyph unicode="|" horiz-adv-x="559" d="M188 -324v1717h162v-1717h-162z" />
<glyph unicode="}" horiz-adv-x="587" d="M-127 -322l27 125h51q74 0 100.5 38.5t52.5 164.5l52 256q12 56 20 87t23.5 66t36 54t52.5 34.5t77 22.5q-57 29 -81 67t-24 101q0 50 12 111l58 266q18 85 18 113q0 46 -26 65t-99 19h-20l26 125q9 0 41.5 1t40.5 1q113 0 163 -34.5t50 -111.5q0 -23 -5 -52t-16 -76.5 t-16 -71.5l-36 -166q-27 -132 -27 -174q0 -50 22 -79.5t78 -47.5l-28 -127q-35 -5 -59 -12t-43.5 -22.5t-31 -31t-22.5 -48t-18.5 -64t-18.5 -87.5l-55 -272q-20 -103 -52 -156t-76.5 -70.5t-123.5 -17.5q-61 0 -123 4z" />
<glyph unicode="~" horiz-adv-x="1112" d="M78 569q16 24 28.5 42t40 47t54 48t66 33.5t81.5 14.5q41 0 87.5 -12.5t76 -25.5t84.5 -40q5 -2 26 -12.5l27 -13.5t23.5 -11t26 -10.5t22 -7t24 -6t21.5 -1.5q28 0 56 12.5t55 37.5t43.5 43.5t40.5 48.5l81 -140q-65 -81 -132 -127.5t-150 -46.5q-54 0 -106.5 18.5 t-131.5 61.5q-106 58 -176 58q-47 0 -82.5 -30.5t-99.5 -113.5z" />
<glyph unicode="&#xa1;" horiz-adv-x="434" d="M-80 -418l148 694l98 345h119l-47 -345l-148 -694h-170zM156 719l55 256h180l-53 -256h-182z" />
<glyph unicode="&#xa2;" horiz-adv-x="1009" d="M70 383q0 115 32 222t91 192t150.5 138.5t201.5 59.5l41 193h147l-43 -205q95 -25 158 -91t90 -159l-141 -78q-35 137 -138 183l-153 -721q152 15 246 180l118 -84q-18 -31 -40 -59.5t-57.5 -61.5t-76.5 -57t-98.5 -41t-122.5 -19l-43 -206h-147l47 223 q-125 33 -193.5 133t-68.5 258zM233 414q0 -210 129 -275l152 715q-66 -12 -120.5 -57t-88.5 -107.5t-53 -134t-19 -141.5z" />
<glyph unicode="&#xa3;" horiz-adv-x="1118" d="M-33 0l29 139q48 3 87.5 17.5t67.5 35t51 54t37.5 66t27 80.5t19.5 88.5t15 97.5l6 45h-215l35 147h203l20 143q17 117 46.5 204t80 156.5t129.5 105.5t185 36q172 0 258 -91.5t86 -236.5v-18l-156 -43q0 115 -48 179.5t-149 64.5q-55 0 -97.5 -20.5t-69.5 -52.5 t-47.5 -85.5t-31.5 -104.5t-22 -126l-16 -111h305l-31 -147h-293q-29 -193 -64 -299.5t-110 -165.5q1 0 27 0.5t71.5 1t92.5 0.5h458l-32 -160h-955z" />
<glyph unicode="&#xa4;" horiz-adv-x="1189" d="M131 231l125 125q-63 99 -63 224q0 127 65 227q-24 25 -69.5 69t-57.5 56l117 117l125 -127q92 63 223 63q136 0 225 -63l123 122l115 -114l-121 -123q63 -101 63 -227q0 -134 -61 -228l119 -119l-115 -114l-121 123q-97 -66 -227 -66q-136 0 -227 64l-123 -123zM352 580 q0 -103 71 -175.5t173 -72.5q105 0 175.5 72t70.5 176q0 105 -70 177t-176 72q-103 0 -173.5 -71.5t-70.5 -177.5z" />
<glyph unicode="&#xa5;" horiz-adv-x="1323" d="M125 319l31 148h376l29 129h-379l31 147h287l-273 650h185l268 -652l543 652h209l-564 -650h297l-30 -147h-394l-28 -129h393l-29 -148h-395l-68 -319h-180l68 319h-377z" />
<glyph unicode="&#xa6;" horiz-adv-x="600" d="M199 274h168v-661h-168v661zM199 729v662h168v-662h-168z" />
<glyph unicode="&#xa7;" horiz-adv-x="1005" d="M-4 59l129 84q32 -78 103.5 -132t179.5 -54q99 0 152.5 40.5t53.5 111.5q0 61 -34.5 99t-104.5 73l-127 63q-64 32 -105.5 59.5t-76 64.5t-50.5 82.5t-16 104.5q0 64 24 117t64.5 87.5t88.5 56t102 30.5q-34 25 -59 73.5t-25 113.5q0 136 102 213t250 77q126 0 224 -58 t143 -155l-121 -86q-39 75 -103 118.5t-151 43.5q-80 0 -129 -36t-49 -99q0 -57 31.5 -92t97.5 -70l82 -43q36 -19 46 -24.5t41.5 -23.5t41 -25.5t33.5 -26t32.5 -30.5t23.5 -32.5t20.5 -40t10.5 -44t5 -52.5q0 -66 -22 -121t-59.5 -91t-78 -59.5t-86.5 -37.5 q100 -79 100 -203q0 -148 -104 -232.5t-270 -84.5q-152 0 -257 67.5t-153 173.5zM266 670q0 -67 45.5 -112t122.5 -79l111 -51q93 12 156 70t63 135q0 34 -13 61t-42 49.5t-55 37.5t-72 36l-72 33q-108 -3 -176 -52t-68 -128z" />
<glyph unicode="&#xa8;" horiz-adv-x="993" d="M342 1151l47 221h174l-47 -221h-174zM711 1151l47 221h174l-47 -221h-174z" />
<glyph unicode="&#xa9;" horiz-adv-x="1601" d="M133 715q0 194 91 354.5t251.5 253t355.5 92.5q146 0 275 -54.5t221 -148t145.5 -223t53.5 -274.5q0 -195 -90.5 -355.5t-250.5 -253t-354 -92.5q-195 0 -355.5 92.5t-251.5 253t-91 355.5zM281 715q0 -152 71.5 -281.5t198.5 -206.5t280 -77q152 0 278.5 77t197.5 206.5 t71 281.5t-71 281t-197.5 205.5t-278.5 76.5q-153 0 -280 -76.5t-198.5 -205.5t-71.5 -281zM467 713q0 189 99 297t263 108q114 0 198 -60.5t126 -168.5l-123 -74q-60 174 -201 174q-101 0 -159 -70t-58 -204q0 -133 59.5 -205t157.5 -72q140 0 207 158l117 -76 q-47 -98 -131.5 -154.5t-192.5 -56.5q-165 0 -263.5 107t-98.5 297z" />
<glyph unicode="&#xaa;" horiz-adv-x="765" d="M168 924q0 101 67 147.5t203 69.5l133 22q31 6 39 27t8 45q0 76 -110 76q-76 0 -111 -30.5t-47 -88.5l-119 14q10 97 86 151t199 54q107 0 164 -37.5t57 -122.5q0 -13 -10 -71q0 -2 -1 -6.5t-1 -6.5l-45 -217q-14 -58 -14 -82q0 -30 39 -30l34 2l-14 -88q-21 -7 -68 -7 q-99 0 -104 64q-56 -68 -182 -68q-91 0 -147 47.5t-56 135.5zM299 930q0 -44 28 -68t76 -24q58 0 100 28.5t54 83.5l29 123q1 0 -14 -3.5t-46.5 -9.5t-64.5 -11q-78 -13 -120 -37.5t-42 -81.5z" />
<glyph unicode="&#xab;" horiz-adv-x="878" d="M86 547l33 160l375 284l-48 -217l-221 -153l148 -193l-45 -213zM440 547l33 160l375 284l-47 -217l-221 -153l147 -193l-45 -213z" />
<glyph unicode="&#xac;" horiz-adv-x="1212" d="M135 795v135h934v-565h-154v430h-780z" />
<glyph unicode="&#xad;" horiz-adv-x="784" d="M102 467l39 178h529l-39 -178h-529z" />
<glyph unicode="&#xae;" horiz-adv-x="1601" d="M133 715q0 194 91 354.5t251.5 253t355.5 92.5q146 0 275 -54.5t221 -148t145.5 -223t53.5 -274.5q0 -195 -90.5 -355.5t-250.5 -253t-354 -92.5q-195 0 -355.5 92.5t-251.5 253t-91 355.5zM281 715q0 -152 71.5 -281.5t198.5 -206.5t280 -77q152 0 278.5 77t197.5 206.5 t71 281.5t-71 281t-197.5 205.5t-278.5 76.5q-153 0 -280 -76.5t-198.5 -205.5t-71.5 -281zM516 309v811h332q109 0 168 -26q60 -26 99.5 -79.5t39.5 -133.5q0 -88 -55.5 -150.5t-141.5 -81.5l238 -340h-170l-229 332h-144v-332h-137zM653 768h178q96 0 125 14q58 27 58 99 q0 76 -58 100q-29 14 -125 14h-178v-227z" />
<glyph unicode="&#xaf;" horiz-adv-x="964" d="M311 1192l31 137h555l-31 -137h-555z" />
<glyph unicode="&#xb0;" horiz-adv-x="772" d="M193 1118q0 126 88 212.5t217 86.5t216 -86.5t87 -212.5t-87.5 -213.5t-215.5 -87.5q-129 0 -217 87.5t-88 213.5zM344 1118q0 -65 45 -110t109 -45t108.5 45t44.5 110t-44.5 110.5t-108.5 45.5t-109 -45.5t-45 -110.5z" />
<glyph unicode="&#xb1;" horiz-adv-x="1495" d="M115 0v156h1200v-156h-1200zM115 639v156h522v426h158v-426h520v-156h-520v-428h-158v428h-522z" />
<glyph unicode="&#xb2;" horiz-adv-x="829" d="M115 530l12 107q202 113 342 219q61 47 101.5 84t75 94t34.5 113q0 65 -39.5 102t-108.5 37q-84 0 -127 -50.5t-43 -125.5q0 -55 25 -113l-151 31q-15 46 -15 92q0 120 87 203.5t229 83.5q133 0 209.5 -71t76.5 -181q0 -58 -19.5 -112.5t-49 -97t-75 -85t-88 -73 t-97.5 -64.5q-91 -57 -123 -72v-2q20 0 66 1t77 1h231l-26 -121h-604z" />
<glyph unicode="&#xb3;" horiz-adv-x="788" d="M123 791l131 43q14 -201 182 -201q86 0 129 46.5t43 113.5q0 76 -52.5 105.5t-145.5 29.5h-84l18 110h70q113 0 166 27q65 33 65 115q0 51 -36 80.5t-99 29.5q-70 0 -114 -44t-50 -118l-129 41q8 98 88.5 168t206.5 70q134 0 203 -63.5t69 -155.5q0 -72 -39.5 -127.5 t-107.5 -83.5q108 -61 108 -186q0 -115 -79 -195t-234 -80q-149 0 -226.5 80.5t-82.5 194.5z" />
<glyph unicode="&#xb4;" horiz-adv-x="915" d="M360 1130l185 263h241l-270 -263h-156z" />
<glyph unicode="&#xb5;" horiz-adv-x="1021" d="M-66 -389l291 1364h172l-112 -526q-27 -128 -27 -173q0 -69 34 -109t118 -40q59 0 111.5 27.5t90 72.5t63.5 98t38 109l114 541h170l-206 -975h-173l35 145q-49 -77 -125.5 -122.5t-169.5 -45.5q-109 0 -157 56l-90 -422h-177z" />
<glyph unicode="&#xb6;" horiz-adv-x="1320" d="M147 938q0 208 134 326q76 67 187.5 97t317.5 30h631l-28 -134h-160l-324 -1519h-145l323 1519h-229l-322 -1519h-147l180 848h-16q-177 0 -289.5 90t-112.5 262z" />
<glyph unicode="&#xb7;" horiz-adv-x="448" d="M117 539l51 233h194l-51 -233h-194z" />
<glyph unicode="&#xb8;" horiz-adv-x="735" d="M102 -117l97 131h112l-59 -84h6q74 0 122 -38.5t48 -110.5q0 -88 -59 -132t-144 -44q-55 0 -110 20l24 78q30 -12 72 -12t69 18t27 55q0 36 -25.5 54t-62.5 18q-46 0 -76 -18z" />
<glyph unicode="&#xb9;" horiz-adv-x="532" d="M166 1110l22 113h50q89 0 135 32q57 41 80 138h122l-182 -856h-141l123 573h-209z" />
<glyph unicode="&#xba;" horiz-adv-x="765" d="M182 1008q0 78 22.5 149t64.5 127t109.5 89.5t151.5 33.5q122 0 191.5 -68.5t69.5 -189.5q0 -76 -21 -147t-62.5 -130.5t-110.5 -95t-157 -35.5q-129 0 -193.5 71t-64.5 196zM309 1018q0 -79 35.5 -124.5t101.5 -45.5q54 0 96.5 27.5t67 71.5t37 93.5t12.5 98.5 q0 77 -34 120.5t-105 43.5q-64 0 -113.5 -45t-73.5 -109t-24 -131z" />
<glyph unicode="&#xbb;" horiz-adv-x="880" d="M45 215l49 227l221 156l-147 190l43 203l242 -332l-33 -159zM399 215l50 227l221 156l-148 190l43 203l242 -332l-33 -159z" />
<glyph unicode="&#xbc;" horiz-adv-x="1640" d="M176 1110l23 113h49q89 0 135 32q57 41 80 138h123l-183 -856h-141l123 573h-209zM225 0l932 1393h156l-930 -1393h-158zM836 209l22 86l531 561h110l-113 -526h142l-27 -121h-141l-45 -209h-139l45 209h-385zM1051 328q51 2 104 2h88l33 131q21 97 39 147h-4 q-51 -63 -92 -104l-86 -90l-82 -82v-4z" />
<glyph unicode="&#xbd;" horiz-adv-x="1689" d="M174 1110l23 113h49q89 0 135 32q57 41 80 138h123l-183 -856h-141l123 573h-209zM223 0l932 1393h156l-930 -1393h-158zM895 0l12 106q196 110 342 220q45 34 76.5 62t65.5 65.5t51.5 79t17.5 83.5q0 65 -39 102.5t-108 37.5q-84 0 -127 -50.5t-43 -125.5q0 -58 24 -113 l-151 31q-15 46 -15 92q0 120 87 203.5t229 83.5q133 0 210 -71t77 -181q0 -72 -27.5 -137t-78.5 -118.5t-102.5 -93.5t-121.5 -83q-91 -57 -123 -72v-2q19 0 65 1t78 1h232l-27 -121h-604z" />
<glyph unicode="&#xbe;" horiz-adv-x="1855" d="M115 791l131 43q14 -201 182 -201q86 0 129 46.5t43 113.5q0 76 -52.5 105.5t-146.5 29.5h-84l19 110h70q112 0 165 27q66 34 66 115q0 51 -36 80.5t-99 29.5q-70 0 -114 -44t-50 -118l-129 41q8 98 88.5 168t206.5 70q134 0 203 -63.5t69 -155.5q0 -72 -39.5 -127.5 t-107.5 -83.5q108 -61 108 -186q0 -115 -79 -195t-234 -80q-149 0 -226.5 80.5t-82.5 194.5zM440 0l932 1393h156l-930 -1393h-158zM1051 209l22 86l531 561h110l-112 -526h141l-27 -121h-141l-45 -209h-139l45 209h-385zM1266 328q51 2 104 2h88l33 131q21 97 39 147h-4 q-51 -63 -92 -104l-86 -90l-82 -82v-4z" />
<glyph unicode="&#xbf;" horiz-adv-x="970" d="M-74 -98q0 216 203 370l164 125q48 37 72.5 66.5t43 76.5t31.5 126h183q-17 -104 -42 -167.5t-68 -112.5t-124 -110l-143 -106q-142 -107 -142 -256q0 -88 59.5 -148.5t172.5 -60.5q127 0 197.5 84t70.5 207q0 72 -29 151l179 -36q20 -64 20 -140q0 -175 -125 -294 t-332 -119q-189 0 -290 99.5t-101 244.5zM453 748l49 227h188l-49 -227h-188z" />
<glyph unicode="&#xc0;" d="M-102 0l794 1393h193l198 -1393h-180l-53 403h-535l-225 -403h-192zM403 561h428l-65 492l-16 143h-2q-43 -88 -80 -154zM455 1821h250l215 -297h-175z" />
<glyph unicode="&#xc1;" d="M-102 0l794 1393h193l198 -1393h-180l-53 403h-535l-225 -403h-192zM403 561h428l-65 492l-16 143h-2q-43 -88 -80 -154zM711 1524l215 297h250l-291 -297h-174z" />
<glyph unicode="&#xc2;" d="M-102 0l794 1393h193l198 -1393h-180l-53 403h-535l-225 -403h-192zM403 561h428l-65 492l-16 143h-2q-43 -88 -80 -154zM516 1532l266 293h162l160 -293h-150l-114 166l-162 -166h-162z" />
<glyph unicode="&#xc3;" d="M-102 0l794 1393h193l198 -1393h-180l-53 403h-535l-225 -403h-192zM403 561h428l-65 492l-16 143h-2q-43 -88 -80 -154zM494 1571q79 209 219 209q63 0 137 -43q5 -3 22 -12.5t25 -13.5t21.5 -10t24.5 -8.5t22 -2.5q53 0 84 96l135 -35q-16 -37 -27.5 -59.5t-32 -54 t-41 -49t-50.5 -31t-64 -13.5q-64 0 -160 51q-6 3 -29 16t-40.5 20t-34.5 7q-29 0 -48.5 -31t-25.5 -65z" />
<glyph unicode="&#xc4;" d="M-102 0l794 1393h193l198 -1393h-180l-53 403h-535l-225 -403h-192zM403 561h428l-65 492l-16 143h-2q-43 -88 -80 -154zM555 1538l47 221h174l-47 -221h-174zM924 1538l47 221h174l-47 -221h-174z" />
<glyph unicode="&#xc5;" d="M-102 0l794 1393h193l198 -1393h-180l-53 403h-535l-225 -403h-192zM403 561h428l-65 492l-16 143h-2q-43 -88 -80 -154zM627 1651q0 85 58.5 142.5t143.5 57.5t144 -58t59 -142q0 -85 -59 -143t-144 -58t-143.5 58t-58.5 143zM748 1651q0 -33 23 -56.5t56 -23.5 t56.5 23.5t23.5 56.5t-23.5 56.5t-56.5 23.5t-56 -23.5t-23 -56.5z" />
<glyph unicode="&#xc6;" horiz-adv-x="1955" d="M-164 0l1120 1393h1057l-33 -164h-755l-90 -428h684l-37 -162h-684l-99 -473h797l-37 -166h-977l78 373h-512l-295 -373h-217zM473 535h424l96 454l58 271h-4q-22 -33 -48.5 -67t-75 -93t-65.5 -80z" />
<glyph unicode="&#xc7;" horiz-adv-x="1308" d="M111 563q0 127 27.5 249t85 232t139 193t197 131.5t251.5 48.5q111 0 201 -31.5t149 -85.5t95.5 -113t58.5 -128l-160 -86q-14 56 -40.5 105t-68 92t-104.5 67.5t-141 24.5q-85 0 -159 -28.5t-127.5 -79.5t-95 -117.5t-67 -145.5t-38.5 -161.5t-13 -166.5 q0 -198 100.5 -315t272.5 -117q238 0 407 258l140 -92q-199 -307 -533 -320l-33 -47h7q74 0 121.5 -38.5t47.5 -110.5q0 -88 -58.5 -132t-143.5 -44q-56 0 -111 20l25 78q30 -12 71 -12q42 0 69.5 18t27.5 55q0 36 -25.5 54t-62.5 18q-46 0 -76 -18l-41 65l78 97 q-219 25 -346 182.5t-127 400.5z" />
<glyph unicode="&#xc8;" d="M43 0l295 1393h936l-33 -164h-756l-90 -428h684l-37 -162h-684l-98 -473h797l-37 -166h-977zM479 1821h250l215 -297h-174z" />
<glyph unicode="&#xc9;" d="M43 0l295 1393h936l-33 -164h-756l-90 -428h684l-37 -162h-684l-98 -473h797l-37 -166h-977zM682 1524l215 297h250l-291 -297h-174z" />
<glyph unicode="&#xca;" d="M43 0l295 1393h936l-33 -164h-756l-90 -428h684l-37 -162h-684l-98 -473h797l-37 -166h-977zM506 1532l266 293h162l160 -293h-150l-115 166l-161 -166h-162z" />
<glyph unicode="&#xcb;" d="M43 0l295 1393h936l-33 -164h-756l-90 -428h684l-37 -162h-684l-98 -473h797l-37 -166h-977zM563 1538l47 221h174l-47 -221h-174zM932 1538l47 221h174l-47 -221h-174z" />
<glyph unicode="&#xcc;" horiz-adv-x="509" d="M41 0l297 1393h180l-297 -1393h-180zM90 1821h250l215 -297h-174z" />
<glyph unicode="&#xcd;" horiz-adv-x="509" d="M41 0l297 1393h180l-297 -1393h-180zM348 1524l215 297h250l-291 -297h-174z" />
<glyph unicode="&#xce;" horiz-adv-x="509" d="M41 0l297 1393h180l-297 -1393h-180zM160 1532l266 293h162l160 -293h-150l-115 166l-161 -166h-162z" />
<glyph unicode="&#xcf;" horiz-adv-x="509" d="M41 0l297 1393h180l-297 -1393h-180zM184 1538l47 221h175l-48 -221h-174zM553 1538l47 221h174l-47 -221h-174z" />
<glyph unicode="&#xd0;" horiz-adv-x="1404" d="M37 670l35 159h155l121 564h324q176 0 290 -25.5t201 -85.5q187 -130 187 -408q0 -152 -40.5 -299t-127.5 -276t-207 -199q-111 -63 -211 -81.5t-268 -18.5h-445l142 670h-156zM262 162h242q134 0 224.5 17t162.5 67q89 61 153 173.5t90.5 224t26.5 212.5q0 212 -137 299 q-48 33 -119 49.5t-125.5 19.5t-146.5 3h-141l-86 -398h419l-32 -159h-422z" />
<glyph unicode="&#xd1;" horiz-adv-x="1429" d="M41 0l297 1393h170l442 -930q52 -104 76 -168h2q18 109 41 213l188 885h181l-297 -1393h-166l-443 930q-21 41 -47.5 101t-29.5 73h-2q-17 -90 -35 -178l-197 -926h-180zM578 1571q79 209 219 209q63 0 137 -43q5 -3 22 -12.5t25 -13.5t21.5 -10t24.5 -8.5t22 -2.5 q53 0 84 96l135 -35q-16 -37 -27.5 -59.5t-32 -54t-41 -49t-50.5 -31t-64 -13.5q-64 0 -160 51q-5 2 -29 16t-41.5 20.5t-34.5 6.5q-29 0 -48 -31t-25 -65z" />
<glyph unicode="&#xd2;" horiz-adv-x="1454" d="M109 557q0 130 28.5 253.5t89 234t145.5 193t205.5 131t262.5 48.5q256 0 406.5 -159t150.5 -422q0 -128 -29.5 -251.5t-91.5 -234t-148 -194t-208.5 -132.5t-264.5 -49q-255 0 -400.5 159.5t-145.5 422.5zM297 563q0 -199 100 -315.5t279 -116.5q103 0 191 41t149 110 t105 159t64.5 188.5t20.5 197.5q0 200 -102 317.5t-283 117.5q-90 0 -167.5 -28.5t-133.5 -79.5t-99.5 -117.5t-70 -145.5t-40 -161.5t-13.5 -166.5zM532 1821h250l215 -297h-174z" />
<glyph unicode="&#xd3;" horiz-adv-x="1454" d="M109 557q0 130 28.5 253.5t89 234t145.5 193t205.5 131t262.5 48.5q256 0 406.5 -159t150.5 -422q0 -128 -29.5 -251.5t-91.5 -234t-148 -194t-208.5 -132.5t-264.5 -49q-255 0 -400.5 159.5t-145.5 422.5zM297 563q0 -199 100 -315.5t279 -116.5q103 0 191 41t149 110 t105 159t64.5 188.5t20.5 197.5q0 200 -102 317.5t-283 117.5q-90 0 -167.5 -28.5t-133.5 -79.5t-99.5 -117.5t-70 -145.5t-40 -161.5t-13.5 -166.5zM766 1524l215 297h250l-291 -297h-174z" />
<glyph unicode="&#xd4;" horiz-adv-x="1454" d="M109 557q0 130 28.5 253.5t89 234t145.5 193t205.5 131t262.5 48.5q256 0 406.5 -159t150.5 -422q0 -128 -29.5 -251.5t-91.5 -234t-148 -194t-208.5 -132.5t-264.5 -49q-255 0 -400.5 159.5t-145.5 422.5zM297 563q0 -199 100 -315.5t279 -116.5q103 0 191 41t149 110 t105 159t64.5 188.5t20.5 197.5q0 200 -102 317.5t-283 117.5q-90 0 -167.5 -28.5t-133.5 -79.5t-99.5 -117.5t-70 -145.5t-40 -161.5t-13.5 -166.5zM571 1532l267 293h161l160 -293h-149l-115 166l-162 -166h-162z" />
<glyph unicode="&#xd5;" horiz-adv-x="1454" d="M109 557q0 130 28.5 253.5t89 234t145.5 193t205.5 131t262.5 48.5q256 0 406.5 -159t150.5 -422q0 -128 -29.5 -251.5t-91.5 -234t-148 -194t-208.5 -132.5t-264.5 -49q-255 0 -400.5 159.5t-145.5 422.5zM297 563q0 -199 100 -315.5t279 -116.5q103 0 191 41t149 110 t105 159t64.5 188.5t20.5 197.5q0 200 -102 317.5t-283 117.5q-90 0 -167.5 -28.5t-133.5 -79.5t-99.5 -117.5t-70 -145.5t-40 -161.5t-13.5 -166.5zM565 1571q79 209 219 209q64 0 138 -43q6 -3 22 -12t24.5 -13.5t21.5 -10.5t24 -8.5t22 -2.5q53 0 84 96l135 -35 q-16 -37 -27.5 -59.5t-32 -54t-41 -49t-50.5 -31t-64 -13.5q-63 0 -159 51q-5 2 -29 16t-41.5 20.5t-34.5 6.5q-29 0 -48.5 -31t-25.5 -65z" />
<glyph unicode="&#xd6;" horiz-adv-x="1454" d="M109 557q0 130 28.5 253.5t89 234t145.5 193t205.5 131t262.5 48.5q256 0 406.5 -159t150.5 -422q0 -128 -29.5 -251.5t-91.5 -234t-148 -194t-208.5 -132.5t-264.5 -49q-255 0 -400.5 159.5t-145.5 422.5zM297 563q0 -199 100 -315.5t279 -116.5q103 0 191 41t149 110 t105 159t64.5 188.5t20.5 197.5q0 200 -102 317.5t-283 117.5q-90 0 -167.5 -28.5t-133.5 -79.5t-99.5 -117.5t-70 -145.5t-40 -161.5t-13.5 -166.5zM600 1538l47 221h174l-47 -221h-174zM969 1538l47 221h174l-47 -221h-174z" />
<glyph unicode="&#xd7;" horiz-adv-x="1433" d="M160 150l452 452l-450 453l110 110l451 -452l455 454l112 -112l-454 -455l452 -450l-110 -111l-453 450l-453 -452z" />
<glyph unicode="&#xd8;" horiz-adv-x="1492" d="M-63 190l217 158q-27 94 -27 209q0 130 28.5 253.5t89 234t145.5 193t205.5 131t262.5 48.5q152 0 269 -58t188 -165l198 145l99 -133l-226 -164q29 -101 29 -206q0 -128 -29.5 -251.5t-91 -234t-148 -194t-208.5 -132.5t-264 -49q-150 0 -264.5 57t-184.5 163l-188 -138 zM315 563q0 -41 7 -92l843 614q-48 85 -131 131t-194 46q-107 0 -196.5 -41t-149 -109.5t-101 -160t-60 -189t-18.5 -199.5zM375 303q99 -172 319 -172q127 0 231 62.5t168 164t98 223t34 246.5q0 47 -6 93z" />
<glyph unicode="&#xd9;" horiz-adv-x="1372" d="M121 375q0 78 26 198l175 820h180l-168 -787q-33 -157 -33 -207q0 -266 311 -266q184 0 279 90q49 46 81.5 115.5t59.5 193.5l182 861h177l-181 -861q-37 -169 -83.5 -272t-120.5 -164q-69 -57 -176.5 -90t-235.5 -33q-230 0 -351.5 109.5t-121.5 292.5zM549 1821h250 l215 -297h-174z" />
<glyph unicode="&#xda;" horiz-adv-x="1372" d="M121 375q0 78 26 198l175 820h180l-168 -787q-33 -157 -33 -207q0 -266 311 -266q184 0 279 90q49 46 81.5 115.5t59.5 193.5l182 861h177l-181 -861q-37 -169 -83.5 -272t-120.5 -164q-69 -57 -176.5 -90t-235.5 -33q-230 0 -351.5 109.5t-121.5 292.5zM700 1524 l215 297h250l-291 -297h-174z" />
<glyph unicode="&#xdb;" horiz-adv-x="1372" d="M121 375q0 78 26 198l175 820h180l-168 -787q-33 -157 -33 -207q0 -266 311 -266q184 0 279 90q49 46 81.5 115.5t59.5 193.5l182 861h177l-181 -861q-37 -169 -83.5 -272t-120.5 -164q-69 -57 -176.5 -90t-235.5 -33q-230 0 -351.5 109.5t-121.5 292.5zM582 1532 l266 293h162l159 -293h-149l-115 166l-162 -166h-161z" />
<glyph unicode="&#xdc;" horiz-adv-x="1372" d="M121 375q0 78 26 198l175 820h180l-168 -787q-33 -157 -33 -207q0 -266 311 -266q184 0 279 90q49 46 81.5 115.5t59.5 193.5l182 861h177l-181 -861q-37 -169 -83.5 -272t-120.5 -164q-69 -57 -176.5 -90t-235.5 -33q-230 0 -351.5 109.5t-121.5 292.5zM616 1538l48 221 h174l-47 -221h-175zM985 1538l47 221h174l-47 -221h-174z" />
<glyph unicode="&#xdd;" horiz-adv-x="1202" d="M170 1393h184l262 -658l549 658h213l-700 -824l-121 -569h-180l121 569zM643 1524l215 297h250l-291 -297h-174z" />
<glyph unicode="&#xde;" horiz-adv-x="1263" d="M43 0l295 1393h180l-41 -187h316q113 0 184 -14t127 -45q69 -38 113.5 -111t44.5 -172q0 -127 -59.5 -232.5t-164.5 -162.5q-56 -31 -132.5 -46t-209.5 -15h-387l-84 -408h-182zM344 567h367q175 0 262 54q50 34 82 96.5t32 140.5q0 107 -90 156q-37 19 -83 26t-128 7 h-342z" />
<glyph unicode="&#xdf;" horiz-adv-x="972" d="M12 0l215 1020q26 124 59 195.5t95 123.5q91 76 235 76q155 0 238.5 -76.5t83.5 -197.5q0 -122 -59 -204t-154 -106q79 -28 113 -88t34 -133q0 -84 -24 -190q-54 -233 -135.5 -333.5t-229.5 -100.5q-109 0 -152.5 48t-43.5 140q0 56 20 154l15 69h118l-14 -69 q-14 -72 -14 -109q0 -96 82 -96q28 0 49.5 7.5t38.5 27.5t29 39.5t24.5 59.5t20 69.5t20.5 87.5q29 122 29 172q0 95 -53 129.5t-181 34.5h-82l31 137h45q156 0 229 61q74 64 74 178q0 72 -42.5 109t-117.5 37q-42 0 -75 -14.5t-54 -36.5t-38.5 -61.5t-27.5 -75t-22 -91.5 l-215 -993h-164z" />
<glyph unicode="&#xe0;" horiz-adv-x="1003" d="M25 244q0 122 61 192q47 55 128.5 87t205.5 52l213 35q24 4 35 7t22 12.5t17 27.5q14 44 14 78q0 123 -189 123q-126 0 -182.5 -48t-75.5 -142l-153 20q15 147 127.5 228t296.5 81q163 0 249.5 -55.5t86.5 -181.5q0 -49 -19 -137l-74 -338q-22 -107 -22 -127 q0 -28 16 -41t56 -13l47 5l-23 -119q-35 -10 -100 -10q-154 0 -154 110v12h-2q-31 -52 -101.5 -89.5t-180.5 -37.5q-132 0 -215.5 69.5t-83.5 199.5zM197 258q0 -73 46.5 -112.5t127.5 -39.5q96 0 166.5 49.5t91.5 143.5l43 195q-37 -15 -105 -27l-110 -21q-44 -8 -69 -14 t-60 -16.5t-54.5 -23t-39.5 -31.5t-28.5 -44.5t-8.5 -58.5zM270 1393h242l184 -263h-155z" />
<glyph unicode="&#xe1;" horiz-adv-x="1003" d="M25 244q0 122 61 192q47 55 128.5 87t205.5 52l213 35q24 4 35 7t22 12.5t17 27.5q14 44 14 78q0 123 -189 123q-126 0 -182.5 -48t-75.5 -142l-153 20q15 147 127.5 228t296.5 81q163 0 249.5 -55.5t86.5 -181.5q0 -49 -19 -137l-74 -338q-22 -107 -22 -127 q0 -28 16 -41t56 -13l47 5l-23 -119q-35 -10 -100 -10q-154 0 -154 110v12h-2q-31 -52 -101.5 -89.5t-180.5 -37.5q-132 0 -215.5 69.5t-83.5 199.5zM197 258q0 -73 46.5 -112.5t127.5 -39.5q96 0 166.5 49.5t91.5 143.5l43 195q-37 -15 -105 -27l-110 -21q-44 -8 -69 -14 t-60 -16.5t-54.5 -23t-39.5 -31.5t-28.5 -44.5t-8.5 -58.5zM475 1130l184 263h242l-270 -263h-156z" />
<glyph unicode="&#xe2;" horiz-adv-x="1003" d="M25 244q0 122 61 192q47 55 128.5 87t205.5 52l213 35q24 4 35 7t22 12.5t17 27.5q14 44 14 78q0 123 -189 123q-126 0 -182.5 -48t-75.5 -142l-153 20q15 147 127.5 228t296.5 81q163 0 249.5 -55.5t86.5 -181.5q0 -49 -19 -137l-74 -338q-22 -107 -22 -127 q0 -28 16 -41t56 -13l47 5l-23 -119q-35 -10 -100 -10q-154 0 -154 110v12h-2q-31 -52 -101.5 -89.5t-180.5 -37.5q-132 0 -215.5 69.5t-83.5 199.5zM197 258q0 -73 46.5 -112.5t127.5 -39.5q96 0 166.5 49.5t91.5 143.5l43 195q-37 -15 -105 -27l-110 -21q-44 -8 -69 -14 t-60 -16.5t-54.5 -23t-39.5 -31.5t-28.5 -44.5t-8.5 -58.5zM336 1130l237 263h162l144 -263h-148l-94 136l-131 -136h-170z" />
<glyph unicode="&#xe3;" horiz-adv-x="1003" d="M25 244q0 122 61 192q47 55 128.5 87t205.5 52l213 35q24 4 35 7t22 12.5t17 27.5q14 44 14 78q0 123 -189 123q-126 0 -182.5 -48t-75.5 -142l-153 20q15 147 127.5 228t296.5 81q163 0 249.5 -55.5t86.5 -181.5q0 -49 -19 -137l-74 -338q-22 -107 -22 -127 q0 -28 16 -41t56 -13l47 5l-23 -119q-35 -10 -100 -10q-154 0 -154 110v12h-2q-31 -52 -101.5 -89.5t-180.5 -37.5q-132 0 -215.5 69.5t-83.5 199.5zM197 258q0 -73 46.5 -112.5t127.5 -39.5q96 0 166.5 49.5t91.5 143.5l43 195q-37 -15 -105 -27l-110 -21q-44 -8 -69 -14 t-60 -16.5t-54.5 -23t-39.5 -31.5t-28.5 -44.5t-8.5 -58.5zM268 1180q79 209 219 209q64 0 138 -43q5 -3 27 -15t31.5 -17t26 -10.5t29.5 -5.5q52 0 84 97l135 -35q-16 -37 -27.5 -59.5t-32 -54t-41 -49t-50.5 -31t-64 -13.5q-63 0 -159 51q-5 2 -29 16t-41.5 20.5 t-34.5 6.5q-29 0 -48 -31t-25 -65z" />
<glyph unicode="&#xe4;" horiz-adv-x="1003" d="M25 244q0 122 61 192q47 55 128.5 87t205.5 52l213 35q24 4 35 7t22 12.5t17 27.5q14 44 14 78q0 123 -189 123q-126 0 -182.5 -48t-75.5 -142l-153 20q15 147 127.5 228t296.5 81q163 0 249.5 -55.5t86.5 -181.5q0 -49 -19 -137l-74 -338q-22 -107 -22 -127 q0 -28 16 -41t56 -13l47 5l-23 -119q-35 -10 -100 -10q-154 0 -154 110v12h-2q-31 -52 -101.5 -89.5t-180.5 -37.5q-132 0 -215.5 69.5t-83.5 199.5zM197 258q0 -73 46.5 -112.5t127.5 -39.5q96 0 166.5 49.5t91.5 143.5l43 195q-37 -15 -105 -27l-110 -21q-44 -8 -69 -14 t-60 -16.5t-54.5 -23t-39.5 -31.5t-28.5 -44.5t-8.5 -58.5zM330 1151l47 221h174l-47 -221h-174zM698 1151l47 221h175l-48 -221h-174z" />
<glyph unicode="&#xe5;" horiz-adv-x="1003" d="M25 244q0 122 61 192q47 55 128.5 87t205.5 52l213 35q24 4 35 7t22 12.5t17 27.5q14 44 14 78q0 123 -189 123q-126 0 -182.5 -48t-75.5 -142l-153 20q15 147 127.5 228t296.5 81q163 0 249.5 -55.5t86.5 -181.5q0 -49 -19 -137l-74 -338q-22 -107 -22 -127 q0 -28 16 -41t56 -13l47 5l-23 -119q-35 -10 -100 -10q-154 0 -154 110v12h-2q-31 -52 -101.5 -89.5t-180.5 -37.5q-132 0 -215.5 69.5t-83.5 199.5zM197 258q0 -73 46.5 -112.5t127.5 -39.5q96 0 166.5 49.5t91.5 143.5l43 195q-37 -15 -105 -27l-110 -21q-44 -8 -69 -14 t-60 -16.5t-54.5 -23t-39.5 -31.5t-28.5 -44.5t-8.5 -58.5zM397 1249q0 85 59 143t144 58t144 -58t59 -143q0 -84 -59 -142t-144 -58t-144 58t-59 142zM518 1249q0 -33 23.5 -56.5t56.5 -23.5t56.5 23.5t23.5 56.5t-23.5 56.5t-56.5 23.5t-56.5 -23.5t-23.5 -56.5z" />
<glyph unicode="&#xe6;" horiz-adv-x="1652" d="M25 244q0 122 61 192q47 55 128.5 87t205.5 52l213 35q24 4 35 7t22 12.5t17 27.5q14 44 14 78q0 123 -189 123q-126 0 -182.5 -48t-75.5 -142l-153 20q15 147 127.5 228t296.5 81q245 0 311 -123q136 123 328 123q98 0 173 -35.5t119 -96.5t65.5 -134.5t21.5 -157.5 q0 -53 -13 -120h-723q-2 -18 -2 -58q0 -135 73.5 -204.5t184.5 -69.5q107 0 187.5 52.5t128.5 131.5l119 -84q-160 -246 -453 -246q-127 0 -219 50.5t-139 146.5q-110 -197 -371 -197q-145 0 -228 68.5t-83 200.5zM197 258q0 -73 46.5 -112.5t127.5 -39.5q96 0 166.5 49.5 t91.5 143.5l43 195q-37 -15 -105 -27l-110 -21q-44 -8 -69 -14t-60 -16.5t-54.5 -23t-39.5 -31.5t-28.5 -44.5t-8.5 -58.5zM854 584h539q0 276 -230 276q-115 0 -196 -76t-113 -200z" />
<glyph unicode="&#xe7;" horiz-adv-x="974" d="M57 383q0 119 34 229t96.5 196t159.5 137.5t214 51.5q145 0 238 -72t127 -192l-142 -78q-22 91 -80 147t-155 56q-76 0 -140 -41.5t-104 -107t-62 -142.5t-22 -153q0 -144 64 -220.5t176 -76.5q177 0 278 180l119 -84q-23 -39 -53 -74t-76.5 -73t-113 -61.5t-144.5 -27.5 l-33 -47h6q74 0 122 -38.5t48 -110.5q0 -88 -58.5 -132t-143.5 -44q-56 0 -111 20l25 78q30 -12 71 -12q42 0 69.5 18t27.5 55q0 36 -25.5 54t-62.5 18q-46 0 -76 -18l-41 65l78 99q-146 20 -228 124.5t-82 276.5z" />
<glyph unicode="&#xe8;" horiz-adv-x="1048" d="M57 397q0 88 21 173.5t64 162.5t104 136t147.5 93.5t186.5 34.5q98 0 173 -35.5t118.5 -96.5t65 -134.5t21.5 -157.5q0 -59 -12 -120h-723q-2 -18 -2 -58q0 -135 73.5 -204.5t184.5 -69.5q107 0 187.5 52.5t128.5 131.5l118 -84q-160 -246 -452 -246q-188 0 -296 110 t-108 312zM250 584h538q0 276 -229 276q-115 0 -196 -76t-113 -200zM291 1393h241l185 -263h-156z" />
<glyph unicode="&#xe9;" horiz-adv-x="1048" d="M57 397q0 88 21 173.5t64 162.5t104 136t147.5 93.5t186.5 34.5q98 0 173 -35.5t118.5 -96.5t65 -134.5t21.5 -157.5q0 -59 -12 -120h-723q-2 -18 -2 -58q0 -135 73.5 -204.5t184.5 -69.5q107 0 187.5 52.5t128.5 131.5l118 -84q-160 -246 -452 -246q-188 0 -296 110 t-108 312zM250 584h538q0 276 -229 276q-115 0 -196 -76t-113 -200zM463 1130l184 263h242l-271 -263h-155z" />
<glyph unicode="&#xea;" horiz-adv-x="1048" d="M57 397q0 88 21 173.5t64 162.5t104 136t147.5 93.5t186.5 34.5q98 0 173 -35.5t118.5 -96.5t65 -134.5t21.5 -157.5q0 -59 -12 -120h-723q-2 -18 -2 -58q0 -135 73.5 -204.5t184.5 -69.5q107 0 187.5 52.5t128.5 131.5l118 -84q-160 -246 -452 -246q-188 0 -296 110 t-108 312zM250 584h538q0 276 -229 276q-115 0 -196 -76t-113 -200zM313 1130l238 263h162l143 -263h-147l-95 136l-131 -136h-170z" />
<glyph unicode="&#xeb;" horiz-adv-x="1048" d="M57 397q0 88 21 173.5t64 162.5t104 136t147.5 93.5t186.5 34.5q98 0 173 -35.5t118.5 -96.5t65 -134.5t21.5 -157.5q0 -59 -12 -120h-723q-2 -18 -2 -58q0 -135 73.5 -204.5t184.5 -69.5q107 0 187.5 52.5t128.5 131.5l118 -84q-160 -246 -452 -246q-188 0 -296 110 t-108 312zM250 584h538q0 276 -229 276q-115 0 -196 -76t-113 -200zM348 1151l47 221h174l-47 -221h-174zM717 1151l47 221h174l-47 -221h-174z" />
<glyph unicode="&#xec;" horiz-adv-x="440" d="M-8 1393h241l185 -263h-156zM12 0l207 975h170l-207 -975h-170z" />
<glyph unicode="&#xed;" horiz-adv-x="440" d="M12 0l207 975h170l-207 -975h-170zM236 1130l184 263h242l-271 -263h-155z" />
<glyph unicode="&#xee;" horiz-adv-x="440" d="M12 0l207 975h170l-207 -975h-170zM55 1130l238 263h162l143 -263h-147l-95 136l-131 -136h-170z" />
<glyph unicode="&#xef;" horiz-adv-x="440" d="M12 0l207 975h170l-207 -975h-170zM70 1151l47 221h174l-47 -221h-174zM438 1151l47 221h174l-47 -221h-174z" />
<glyph unicode="&#xf0;" horiz-adv-x="1056" d="M53 373q0 89 21.5 175.5t65 162t102 133.5t138.5 91.5t169 33.5q186 0 270 -140q-13 124 -67 261l-318 -91l-31 125l289 88q-65 103 -96 146l135 76q62 -72 117 -179l231 70l29 -129l-205 -59q70 -199 70 -404q0 -114 -17.5 -219.5t-58.5 -204.5t-102 -172t-153.5 -116.5 t-207.5 -43.5q-174 0 -277.5 106.5t-103.5 289.5zM225 385q0 -124 58.5 -195t160.5 -71q66 0 122 27t94 71.5t65 103t39 120.5t12 124q0 124 -59 193t-164 69q-102 0 -179 -68t-113 -166.5t-36 -207.5z" />
<glyph unicode="&#xf1;" horiz-adv-x="1038" d="M12 0l207 975h172l-35 -146q48 75 133 121.5t181 46.5q54 0 100 -13.5t83.5 -41.5t59 -77t21.5 -115q0 -62 -25 -187l-118 -563h-168l114 532q27 128 27 173q0 149 -156 149q-60 0 -114.5 -28.5t-93 -75t-65 -100t-38.5 -109.5l-115 -541h-170zM317 1180q79 209 220 209 q63 0 137 -43q5 -3 27 -15t31.5 -17t26 -10.5t29.5 -5.5q52 0 84 97l136 -35q-16 -37 -27.5 -59.5t-32 -54t-41 -49t-50.5 -31t-64 -13.5q-64 0 -160 51q-5 2 -29 16t-41.5 20.5t-34.5 6.5q-29 0 -48 -31t-25 -65z" />
<glyph unicode="&#xf2;" horiz-adv-x="1064" d="M55 387q0 92 21 180.5t65 166t105.5 136.5t148 93t187.5 34q184 0 285.5 -115.5t101.5 -306.5q0 -88 -20.5 -173.5t-63.5 -162.5t-103.5 -136t-147 -93.5t-188.5 -34.5q-179 0 -285 111.5t-106 300.5zM221 399q0 -133 66 -207.5t178 -74.5q83 0 149.5 42t106.5 110 t61 147.5t21 161.5q0 133 -64 206.5t-178 73.5q-81 0 -148 -42t-107.5 -109.5t-62.5 -147t-22 -160.5zM295 1393h242l184 -263h-156z" />
<glyph unicode="&#xf3;" horiz-adv-x="1064" d="M55 387q0 92 21 180.5t65 166t105.5 136.5t148 93t187.5 34q184 0 285.5 -115.5t101.5 -306.5q0 -88 -20.5 -173.5t-63.5 -162.5t-103.5 -136t-147 -93.5t-188.5 -34.5q-179 0 -285 111.5t-106 300.5zM221 399q0 -133 66 -207.5t178 -74.5q83 0 149.5 42t106.5 110 t61 147.5t21 161.5q0 133 -64 206.5t-178 73.5q-81 0 -148 -42t-107.5 -109.5t-62.5 -147t-22 -160.5zM506 1130l184 263h242l-270 -263h-156z" />
<glyph unicode="&#xf4;" horiz-adv-x="1064" d="M55 387q0 92 21 180.5t65 166t105.5 136.5t148 93t187.5 34q184 0 285.5 -115.5t101.5 -306.5q0 -88 -20.5 -173.5t-63.5 -162.5t-103.5 -136t-147 -93.5t-188.5 -34.5q-179 0 -285 111.5t-106 300.5zM221 399q0 -133 66 -207.5t178 -74.5q83 0 149.5 42t106.5 110 t61 147.5t21 161.5q0 133 -64 206.5t-178 73.5q-81 0 -148 -42t-107.5 -109.5t-62.5 -147t-22 -160.5zM340 1130l238 263h161l144 -263h-148l-94 136l-131 -136h-170z" />
<glyph unicode="&#xf5;" horiz-adv-x="1064" d="M55 387q0 92 21 180.5t65 166t105.5 136.5t148 93t187.5 34q184 0 285.5 -115.5t101.5 -306.5q0 -88 -20.5 -173.5t-63.5 -162.5t-103.5 -136t-147 -93.5t-188.5 -34.5q-179 0 -285 111.5t-106 300.5zM221 399q0 -133 66 -207.5t178 -74.5q83 0 149.5 42t106.5 110 t61 147.5t21 161.5q0 133 -64 206.5t-178 73.5q-81 0 -148 -42t-107.5 -109.5t-62.5 -147t-22 -160.5zM313 1180q79 209 219 209q64 0 138 -43q5 -3 27 -15t31.5 -17t26 -10.5t29.5 -5.5q52 0 84 97l136 -35q-21 -46 -36.5 -74.5t-42 -63.5t-61 -52t-76.5 -17q-63 0 -159 51 q-5 2 -29 16t-41.5 20.5t-34.5 6.5q-29 0 -48 -31t-25 -65z" />
<glyph unicode="&#xf6;" horiz-adv-x="1064" d="M55 387q0 92 21 180.5t65 166t105.5 136.5t148 93t187.5 34q184 0 285.5 -115.5t101.5 -306.5q0 -88 -20.5 -173.5t-63.5 -162.5t-103.5 -136t-147 -93.5t-188.5 -34.5q-179 0 -285 111.5t-106 300.5zM221 399q0 -133 66 -207.5t178 -74.5q83 0 149.5 42t106.5 110 t61 147.5t21 161.5q0 133 -64 206.5t-178 73.5q-81 0 -148 -42t-107.5 -109.5t-62.5 -147t-22 -160.5zM350 1151l47 221h174l-47 -221h-174zM719 1151l47 221h174l-47 -221h-174z" />
<glyph unicode="&#xf7;" horiz-adv-x="1597" d="M90 410v155h1378v-155h-1378zM682 0v223h195v-223h-195zM682 752v223h195v-223h-195z" />
<glyph unicode="&#xf8;" horiz-adv-x="1067" d="M-45 123l125 106q-23 77 -23 158q0 92 21 180.5t65 166t105.5 136.5t148 93t187.5 34q171 0 274 -106l103 88l104 -113l-125 -106q31 -85 31 -185q0 -88 -20.5 -173.5t-63 -162.5t-103 -136t-147 -93.5t-188.5 -34.5q-183 0 -289 115l-105 -88zM223 399q0 -8 1 -23.5 t1 -23.5l512 436q-64 70 -174 70q-81 0 -148 -42t-107.5 -109.5t-62.5 -147t-22 -160.5zM283 197q65 -80 184 -80q83 0 149.5 42t106.5 110t61 147.5t21 161.5q0 25 -4 61z" />
<glyph unicode="&#xf9;" horiz-adv-x="1026" d="M68 246q0 68 22 178l117 551h168l-113 -526q-26 -123 -26 -173q0 -69 33.5 -109t117.5 -40q59 0 111.5 27.5t90 72.5t63.5 98t38 109l115 541h170l-207 -975h-172l35 145q-50 -78 -126.5 -123t-174.5 -45q-112 0 -187 69t-75 200zM289 1393h241l185 -263h-156z" />
<glyph unicode="&#xfa;" horiz-adv-x="1026" d="M68 246q0 68 22 178l117 551h168l-113 -526q-26 -123 -26 -173q0 -69 33.5 -109t117.5 -40q59 0 111.5 27.5t90 72.5t63.5 98t38 109l115 541h170l-207 -975h-172l35 145q-50 -78 -126.5 -123t-174.5 -45q-112 0 -187 69t-75 200zM473 1130l184 263h242l-270 -263h-156z " />
<glyph unicode="&#xfb;" horiz-adv-x="1026" d="M68 246q0 68 22 178l117 551h168l-113 -526q-26 -123 -26 -173q0 -69 33.5 -109t117.5 -40q59 0 111.5 27.5t90 72.5t63.5 98t38 109l115 541h170l-207 -975h-172l35 145q-50 -78 -126.5 -123t-174.5 -45q-112 0 -187 69t-75 200zM334 1130l237 263h162l144 -263h-148 l-94 136l-131 -136h-170z" />
<glyph unicode="&#xfc;" horiz-adv-x="1026" d="M68 246q0 68 22 178l117 551h168l-113 -526q-26 -123 -26 -173q0 -69 33.5 -109t117.5 -40q59 0 111.5 27.5t90 72.5t63.5 98t38 109l115 541h170l-207 -975h-172l35 145q-50 -78 -126.5 -123t-174.5 -45q-112 0 -187 69t-75 200zM350 1151l47 221h174l-47 -221h-174z M719 1151l47 221h174l-47 -221h-174z" />
<glyph unicode="&#xfd;" horiz-adv-x="917" d="M-147 -387l30 139q49 -22 109 -22q66 0 110 41q30 30 76 110l72 127l-139 967h178l71 -576l17 -174h2q49 101 98 187l320 563h184l-676 -1163q-65 -113 -104 -152q-71 -74 -217 -74q-82 0 -131 27zM457 1130l184 263h242l-271 -263h-155z" />
<glyph unicode="&#xfe;" horiz-adv-x="1089" d="M-72 -389l381 1782h170l-123 -551q44 70 122 112.5t171 42.5q70 0 131.5 -25t110.5 -73t77.5 -125t28.5 -174q0 -122 -35.5 -234t-98.5 -198.5t-157.5 -138.5t-205.5 -52t-184 48.5t-103 124.5l-115 -539h-170zM268 387q0 -125 56 -196.5t168 -71.5q77 0 142.5 43 t106.5 111t63.5 147.5t22.5 157.5q0 128 -56.5 202t-170.5 74q-80 0 -145.5 -44.5t-105 -115t-60.5 -150.5t-21 -157z" />
<glyph unicode="&#xff;" horiz-adv-x="917" d="M-147 -387l30 139q49 -22 109 -22q66 0 110 41q30 30 76 110l72 127l-139 967h178l71 -576l17 -174h2q49 101 98 187l320 563h184l-676 -1163q-65 -113 -104 -152q-71 -74 -217 -74q-82 0 -131 27zM305 1151l47 221h174l-47 -221h-174zM674 1151l47 221h174l-47 -221 h-174z" />
<glyph unicode="&#x152;" horiz-adv-x="1855" d="M113 578q0 128 29.5 250t89 228.5t142 187t195 127t240.5 46.5q136 0 240 -53l6 29h860l-33 -164h-680l-90 -428h608l-37 -162h-608l-98 -473h721l-37 -166h-901l4 23q-77 -25 -164 -25q-103 0 -189.5 33.5t-154 102t-105.5 182t-38 262.5zM289 582q0 -206 90 -318 t266 -112q85 0 152 24l215 1020q-97 68 -219 68q-95 0 -178 -41.5t-141.5 -110.5t-101 -158t-63 -184t-20.5 -188z" />
<glyph unicode="&#x153;" horiz-adv-x="1775" d="M55 387q0 92 21 180.5t65 166t105.5 136.5t148 93t187.5 34q117 0 201.5 -50t131.5 -140q148 190 392 190q98 0 173 -35.5t119 -96.5t65.5 -134.5t21.5 -157.5q0 -53 -13 -120h-723q-2 -18 -2 -58q0 -135 73.5 -204.5t184.5 -69.5q107 0 187.5 52.5t128.5 131.5l118 -84 q-160 -246 -452 -246q-123 0 -212.5 48.5t-139.5 140.5q-67 -88 -166 -138.5t-224 -50.5q-179 0 -285 111.5t-106 300.5zM221 399q0 -133 66 -207.5t178 -74.5q83 0 149.5 42t106.5 110t61 147.5t21 161.5q0 133 -64 206.5t-178 73.5q-81 0 -148 -42t-107.5 -109.5 t-62.5 -147t-22 -160.5zM977 584h539q0 276 -230 276q-115 0 -196 -76t-113 -200z" />
<glyph unicode="&#x178;" horiz-adv-x="1202" d="M170 1393h184l262 -658l549 658h213l-700 -824l-121 -569h-180l121 569zM506 1538l47 221h174l-47 -221h-174zM874 1538l48 221h174l-47 -221h-175z" />
<glyph unicode="&#x2c6;" horiz-adv-x="1038" d="M328 1130l237 263h162l143 -263h-147l-94 136l-131 -136h-170z" />
<glyph unicode="&#x2dc;" horiz-adv-x="1099" d="M322 1180q79 209 219 209q63 0 137 -43q4 -2 27 -15t32 -17.5t26 -10t30 -5.5q52 0 84 97l135 -35q-16 -37 -27.5 -59.5t-32 -54t-41 -49t-50.5 -31t-64 -13.5q-64 0 -160 51q-5 2 -29 16t-41.5 20.5t-34.5 6.5q-29 0 -48 -31t-25 -65z" />
<glyph unicode="&#x2000;" horiz-adv-x="925" />
<glyph unicode="&#x2001;" horiz-adv-x="1851" />
<glyph unicode="&#x2002;" horiz-adv-x="925" />
<glyph unicode="&#x2003;" horiz-adv-x="1851" />
<glyph unicode="&#x2004;" horiz-adv-x="617" />
<glyph unicode="&#x2005;" horiz-adv-x="462" />
<glyph unicode="&#x2006;" horiz-adv-x="308" />
<glyph unicode="&#x2007;" horiz-adv-x="308" />
<glyph unicode="&#x2008;" horiz-adv-x="231" />
<glyph unicode="&#x2009;" horiz-adv-x="370" />
<glyph unicode="&#x200a;" horiz-adv-x="102" />
<glyph unicode="&#x2010;" horiz-adv-x="784" d="M102 467l39 178h529l-39 -178h-529z" />
<glyph unicode="&#x2011;" horiz-adv-x="784" d="M102 467l39 178h529l-39 -178h-529z" />
<glyph unicode="&#x2012;" horiz-adv-x="784" d="M102 467l39 178h529l-39 -178h-529z" />
<glyph unicode="&#x2013;" horiz-adv-x="1296" d="M104 479l35 156h1039l-35 -156h-1039z" />
<glyph unicode="&#x2014;" horiz-adv-x="1689" d="M104 479l35 156h1432l-35 -156h-1432z" />
<glyph unicode="&#x2018;" horiz-adv-x="421" d="M172 866l33 154q34 168 67 235q68 134 207 144l-20 -94q-57 -8 -85.5 -56t-51.5 -147h94l-49 -236h-195z" />
<glyph unicode="&#x2019;" horiz-adv-x="411" d="M174 860l21 94q57 8 85.5 56t51.5 147h-94l49 236h194l-32 -154q-33 -165 -68 -235q-68 -134 -207 -144z" />
<glyph unicode="&#x201a;" horiz-adv-x="430" d="M-68 -297l21 94q57 8 85.5 56t51.5 147h-94l49 236h195l-33 -154q-33 -167 -68 -236q-68 -133 -207 -143z" />
<glyph unicode="&#x201c;" horiz-adv-x="716" d="M172 866l33 154q34 168 67 235q68 134 207 144l-20 -94q-57 -8 -85.5 -56t-51.5 -147h94l-49 -236h-195zM467 866l33 154q34 168 67 235q68 134 207 144l-20 -94q-57 -8 -86.5 -56t-51.5 -147h95l-49 -236h-195z" />
<glyph unicode="&#x201d;" horiz-adv-x="706" d="M174 860l21 94q57 8 85.5 56t51.5 147h-94l49 236h194l-32 -154q-33 -165 -68 -235q-68 -134 -207 -144zM469 860l20 94q57 8 86.5 56t51.5 147h-95l50 236h194l-33 -154q-34 -168 -67 -235q-68 -134 -207 -144z" />
<glyph unicode="&#x201e;" horiz-adv-x="724" d="M-68 -297l21 94q57 8 85.5 56t51.5 147h-94l49 236h195l-33 -154q-33 -167 -68 -236q-68 -133 -207 -143zM227 -297l21 94q57 8 85.5 56t51.5 147h-94l49 236h195l-33 -154q-33 -167 -68 -236q-68 -133 -207 -143z" />
<glyph unicode="&#x2022;" horiz-adv-x="845" d="M158 702q0 120 83 203.5t203 83.5t203.5 -83.5t83.5 -203.5t-83.5 -203t-203.5 -83t-203 83t-83 203z" />
<glyph unicode="&#x2026;" horiz-adv-x="1806" d="M-2 0l51 236h195l-51 -236h-195zM684 0l51 236h195l-51 -236h-195zM1370 0l51 236h195l-51 -236h-195z" />
<glyph unicode="&#x202f;" horiz-adv-x="370" />
<glyph unicode="&#x2039;" horiz-adv-x="524" d="M86 547l33 160l375 284l-48 -217l-221 -153l148 -193l-45 -213z" />
<glyph unicode="&#x203a;" horiz-adv-x="526" d="M45 215l49 227l221 156l-147 190l43 203l242 -332l-33 -159z" />
<glyph unicode="&#x205f;" horiz-adv-x="462" />
<glyph unicode="&#x20ac;" horiz-adv-x="1294" d="M47 485l70 152h121q8 70 18 113h-156l74 151h119q37 107 92 198t127 163t164.5 112.5t195.5 40.5q51 0 100.5 -10.5t102 -38t95 -69t76 -109.5t48.5 -154l-168 -63q-19 138 -85.5 214.5t-178.5 76.5q-132 0 -231 -101t-158 -260h494l-76 -151h-459q-10 -60 -16 -113h493 l-75 -152h-424q7 -177 83 -265.5t191 -88.5q104 0 191 70t149 190l141 -80q-82 -154 -207 -244t-284 -90q-210 0 -323.5 137t-121.5 371h-182z" />
<glyph unicode="&#x2122;" horiz-adv-x="2015" d="M264 1251v142h694v-142h-272v-772h-149v772h-273zM1044 477v916h191l149 -441q43 -130 80 -274h4q61 224 78 274l137 441h195v-916h-145v455q0 160 10 258h-4q-33 -146 -64 -248l-149 -465h-121l-160 463q-40 112 -63 234h-4q12 -119 12 -240v-457h-146z" />
<glyph unicode="&#x25fc;" horiz-adv-x="972" d="M0 0v973h973v-973h-973z" />
</font>
</defs>
</svg>
